<svg xmlns="http://www.w3.org/2000/svg" xmlns:xlink="http://www.w3.org/1999/xlink" viewBox="0 0 604 428"><defs><filter id="a" width="106.9%" height="109.9%" x="-3.4%" y="-4%" filterUnits="objectBoundingBox"><feOffset dy="4" in="SourceAlpha" result="shadowOffsetOuter1"/><feGaussianBlur in="shadowOffsetOuter1" result="shadowBlurOuter1" stdDeviation="6"/><feColorMatrix in="shadowBlurOuter1" values="0 0 0 0 0.168627451 0 0 0 0 0.176470588 0 0 0 0 0.192156863 0 0 0 0.1 0"/></filter><rect id="b" width="580" height="403.333" x="0" y="0" rx="8.333"/></defs><g fill="none" fill-rule="evenodd" transform="translate(12 8)"><use fill="#000" filter="url(#a)" xlink:href="#b"/><use fill="#FFF" xlink:href="#b"/><path fill="#2B2D31" fill-rule="nonzero" d="M46.99 50.833V47.77h-7.74v-.22l3.663-3.417c2.93-2.747 3.833-4.163 3.833-6.226 0-2.978-2.393-5.14-6.128-5.14-3.858 0-6.543 2.381-6.543 5.836h3.418c0-1.685 1.123-2.869 2.917-2.869 1.721 0 2.722 1.111 2.722 2.515 0 1.184-.476 1.99-2.673 4.101l-6.177 5.909v2.575H46.99zm5.945.33c1.318 0 2.16-.891 2.16-2.124s-.842-2.112-2.16-2.112c-1.307 0-2.161.879-2.161 2.112s.854 2.124 2.16 2.124zm12.83.122c3.966 0 6.615-2.54 6.615-6.274 0-3.577-2.429-5.799-5.468-5.799-1.831 0-3.125.66-3.858 1.77h-.22l.452-4.736h8.142v-3.027H60.43l-.94 10.363h3.296c.549-1.037 1.623-1.684 3.015-1.684 1.794 0 3.064 1.257 3.064 3.15 0 1.94-1.282 3.222-3.137 3.222-1.636 0-2.894-.964-3.089-2.454h-3.406c.11 3.15 2.71 5.469 6.531 5.469zm14.526-.452l7.36-14.55v-3.077H75.054v3.04h8.886v.207l-7.507 14.38h3.858zm18.432 0V33.22H95.05l-4.553 3.137v3.43l4.32-2.979h.22v14.026h3.687zm19.592 0c3.76 0 6.092-1.953 6.092-5.041 0-2.27-1.697-4.028-4.029-4.2v-.22c1.807-.268 3.186-1.891 3.186-3.759 0-2.722-2.038-4.394-5.456-4.394h-7.703v17.614h7.91zm-1.452-10.315h-2.771v-4.48h3.076c1.758 0 2.771.843 2.771 2.247 0 1.416-1.086 2.233-3.076 2.233zm.512 7.496h-3.283v-5.005h3.198c2.173 0 3.357.854 3.357 2.465 0 1.648-1.147 2.54-3.272 2.54zm18.323 2.82V36.367h5.286v-3.15h-14.258v3.15h5.286v14.465h3.686zm16.028.451c4.248 0 7.349-2.625 7.654-6.433h-3.589c-.354 1.94-1.94 3.186-4.053 3.186-2.783 0-4.504-2.307-4.504-6.018s1.721-6.006 4.492-6.006c2.1 0 3.699 1.33 4.053 3.357h3.589c-.269-3.833-3.467-6.604-7.642-6.604-5.115 0-8.264 3.528-8.264 9.253 0 5.737 3.162 9.265 8.264 9.265z"/><path fill="#A5A5A5" fill-rule="nonzero" d="M43.361 80.833v-2.247h-5.675v-.16l2.685-2.507c2.149-2.014 2.811-3.053 2.811-4.566 0-2.184-1.755-3.768-4.494-3.768-2.829 0-4.798 1.745-4.798 4.279h2.506c0-1.236.824-2.104 2.14-2.104 1.262 0 1.996.815 1.996 1.844 0 .868-.349 1.46-1.96 3.008l-4.53 4.332v1.89h9.319zm11.091 0v-2.336h1.692V76.25h-1.692v-8.334h-3.786c-1.728 2.65-3.483 5.487-5.112 8.388v2.193h6.32v2.336h2.578zm-2.515-4.493H47.98v-.153a112.013 112.013 0 013.814-6.167h.143v6.32zM71.8 80.833v-2.336h1.692V76.25H71.8v-8.334h-3.787c-1.727 2.65-3.482 5.487-5.111 8.388v2.193h6.32v2.336H71.8zm-2.516-4.493H65.33v-.153a112.004 112.004 0 013.813-6.167h.143v6.32zm15.845 4.493v-2.247h-5.675v-.16l2.685-2.507c2.149-2.014 2.811-3.053 2.811-4.566 0-2.184-1.754-3.768-4.494-3.768-2.828 0-4.798 1.745-4.798 4.279h2.507c0-1.236.823-2.104 2.14-2.104 1.261 0 1.995.815 1.995 1.844 0 .868-.349 1.46-1.96 3.008l-4.53 4.332v1.89h9.32zm11.092 0v-2.336h1.691V76.25h-1.691v-8.334h-3.787a150.1 150.1 0 00-5.112 8.388v2.193h6.32v2.336h2.579zm-2.516-4.493H89.75v-.153a112.625 112.625 0 013.814-6.167h.143v6.32zm8.406 4.735c.967 0 1.584-.653 1.584-1.558 0-.904-.617-1.548-1.584-1.548-.958 0-1.585.644-1.585 1.548 0 .905.627 1.558 1.585 1.558zm9.408.09c2.91 0 4.852-1.862 4.852-4.602 0-2.623-1.781-4.252-4.01-4.252-1.343 0-2.292.484-2.83 1.298h-.16l.331-3.473h5.97v-2.22h-8.065l-.69 7.6h2.418c.403-.761 1.19-1.235 2.211-1.235 1.316 0 2.247.922 2.247 2.31 0 1.423-.94 2.362-2.3 2.362-1.2 0-2.122-.707-2.265-1.799h-2.498c.08 2.31 1.987 4.01 4.79 4.01zm12.22 0c3.195 0 5.129-2.534 5.129-6.804 0-4.288-1.96-6.776-5.13-6.776-3.177 0-5.129 2.488-5.129 6.767 0 4.288 1.934 6.813 5.13 6.813zm0-2.203c-1.478 0-2.39-1.548-2.39-4.61 0-3.034.921-4.556 2.39-4.556 1.476 0 2.39 1.513 2.39 4.556 0 3.062-.905 4.61-2.39 4.61zm17.975 2.203c3.303 0 5.407-1.925 5.407-4.79v-8.46h-2.704v8.183c0 1.63-.976 2.667-2.703 2.667-1.728 0-2.713-1.038-2.713-2.667v-8.182H136.3v8.46c0 2.864 2.112 4.789 5.416 4.789zm13.123 0c3.24 0 5.237-1.594 5.237-4.199 0-2.005-1.12-3.124-3.715-3.67l-1.558-.331c-1.513-.323-2.13-.78-2.13-1.576 0-.985.895-1.611 2.247-1.611 1.307 0 2.255.68 2.38 1.7h2.543c-.08-2.3-2.095-3.893-4.941-3.893-2.981 0-4.942 1.602-4.942 4.037 0 1.97 1.155 3.196 3.51 3.688l1.682.358c1.585.34 2.23.815 2.23 1.638 0 .976-.994 1.656-2.4 1.656-1.522 0-2.578-.671-2.703-1.718h-2.614c.098 2.408 2.095 3.92 5.174 3.92zm12.873-.332c3.867 0 6.06-2.354 6.06-6.552 0-4.047-2.22-6.365-6.06-6.365h-5.085v12.917h5.085zm-.43-2.31h-1.951v-8.298h1.951c2.345 0 3.733 1.486 3.733 4.1 0 2.73-1.343 4.199-3.733 4.199z"/><g fill-rule="nonzero"><path fill="#F7931A" d="M48.917 116.183a8.331 8.331 0 11-16.17-4.034 8.331 8.331 0 0116.171 4.034z"/><path fill="#FFF" d="M44.378 112.979c.166-1.109-.679-1.705-1.833-2.102l.374-1.502-.915-.228-.364 1.462c-.24-.06-.487-.116-.733-.172l.368-1.472-.914-.228-.375 1.501c-.199-.045-.394-.09-.584-.137l.001-.005-1.26-.314-.244.976s.678.156.664.165c.37.093.437.338.426.532l-.427 1.711a.897.897 0 01.095.03l-.096-.023-.598 2.397c-.045.112-.16.281-.42.217.01.013-.664-.166-.664-.166l-.454 1.047 1.19.297c.222.055.439.113.652.168l-.378 1.52.913.227.375-1.503c.25.068.492.13.729.19l-.374 1.495.914.228.379-1.516c1.56.295 2.732.176 3.225-1.234.398-1.136-.02-1.79-.84-2.218.598-.138 1.048-.531 1.168-1.343zm-2.09 2.93c-.282 1.135-2.194.521-2.814.367l.502-2.012c.62.154 2.607.46 2.313 1.645zm.283-2.946c-.258 1.033-1.85.508-2.366.38l.456-1.826c.516.128 2.179.368 1.91 1.446z"/></g><path fill="#6B6B6B" fill-rule="nonzero" d="M61.01 117.5c2.004 0 3.228-1.022 3.228-2.67 0-1.223-.872-2.135-2.135-2.252v-.117c.944-.15 1.673-1.022 1.673-2.012 0-1.445-1.074-2.344-2.858-2.344h-3.926v9.395h4.017zm-.717-5.443h-1.621v-2.617h1.836c1.015 0 1.608.482 1.608 1.309 0 .846-.632 1.308-1.823 1.308zm.332 4.108h-1.953v-2.897h1.888c1.282 0 1.96.495 1.96 1.433 0 .957-.658 1.464-1.895 1.464zm6.087-6.966c.534 0 .964-.43.964-.97s-.43-.976-.964-.976c-.527 0-.963.436-.963.976s.436.97.963.97zm.808 8.301v-7.122h-1.61v7.122h1.609zm4.798.033c.312 0 .612-.033.846-.079v-1.263c-.195.02-.319.033-.547.033-.677 0-.976-.313-.976-1.016v-3.496h1.523v-1.289h-1.523v-1.79h-1.608v1.79h-1.127v1.29h1.127v3.886c0 1.38.65 1.934 2.285 1.934zm5.514.11c1.803 0 2.923-1.002 3.099-2.493h-1.536c-.17.742-.73 1.14-1.57 1.14-1.1 0-1.764-.873-1.764-2.37 0-1.479.658-2.331 1.765-2.331.885 0 1.419.494 1.569 1.184h1.536c-.17-1.497-1.276-2.539-3.105-2.539-2.142 0-3.399 1.374-3.399 3.685 0 2.344 1.263 3.724 3.405 3.724zm7.715 0c2.129 0 3.424-1.393 3.424-3.704 0-2.305-1.302-3.705-3.424-3.705-2.116 0-3.425 1.407-3.425 3.705 0 2.311 1.29 3.704 3.425 3.704zm0-1.354c-1.126 0-1.771-.86-1.771-2.35 0-1.485.645-2.35 1.77-2.35 1.12 0 1.765.865 1.765 2.35 0 1.49-.638 2.35-1.764 2.35zm5.872-7.09c.534 0 .964-.43.964-.97s-.43-.976-.964-.976c-.527 0-.963.436-.963.976s.436.97.963.97zm.808 8.301v-7.122h-1.609v7.122h1.609zm3.613 0v-4.147c0-1.048.605-1.712 1.569-1.712.983 0 1.439.546 1.439 1.634v4.225h1.614v-4.61c0-1.699-.866-2.656-2.454-2.656-1.061 0-1.778.489-2.116 1.283h-.11v-1.14h-1.557v7.123h1.615zm13.958 2.012c-.95-1.211-1.693-3.698-1.693-5.95 0-2.247.75-4.74 1.693-5.938h-1.458c-1.276 1.588-1.901 3.554-1.901 5.944 0 2.37.618 4.342 1.9 5.944h1.46zm5.807-2.012c2.006 0 3.23-1.022 3.23-2.67 0-1.223-.873-2.135-2.136-2.252v-.117c.944-.15 1.673-1.022 1.673-2.012 0-1.445-1.074-2.344-2.858-2.344h-3.925v9.395h4.016zm-.716-5.443h-1.62v-2.617h1.835c1.016 0 1.608.482 1.608 1.309 0 .846-.631 1.308-1.823 1.308zm.332 4.108h-1.953v-2.897h1.888c1.283 0 1.96.495 1.96 1.433 0 .957-.658 1.464-1.895 1.464zm9.453 1.335v-7.943h2.898v-1.452h-7.468v1.452h2.89v7.943h1.68zm8.575.234c2.168 0 3.756-1.295 3.978-3.216h-1.654c-.228 1.055-1.133 1.719-2.324 1.719-1.602 0-2.598-1.315-2.598-3.438 0-2.115.996-3.43 2.591-3.43 1.185 0 2.09.729 2.324 1.855h1.654c-.195-1.96-1.842-3.353-3.978-3.353-2.663 0-4.31 1.882-4.31 4.935 0 3.04 1.654 4.928 4.317 4.928zm6.77 1.778c1.277-1.589 1.902-3.561 1.902-5.944 0-2.37-.619-4.343-1.901-5.944h-1.459c.95 1.21 1.693 3.698 1.693 5.95 0 2.246-.749 4.74-1.693 5.938h1.459z"/><path fill="#4574EB" d="M170.987 113.833a.536.536 0 01-.154-.35c0-.1.052-.25.154-.35l.718-.7c.205-.2.513-.2.718 0l.051.05 2.82 2.95c.103.1.257.1.36 0l6.872-6.95h.05c.206-.2.514-.2.719 0l.718.7c.205.2.205.5 0 .7l-8.205 8.3a.472.472 0 01-.36.15.47.47 0 01-.358-.15l-4-4.2-.103-.15z"/><path fill="#4574EB" fill-rule="nonzero" d="M196.01 117.5v-7.943h2.896v-1.452h-7.467v1.452h2.89v7.943h1.68zm6.1 0v-4.115c0-.996.729-1.647 1.777-1.647.273 0 .703.046.827.091v-1.497c-.15-.046-.437-.072-.671-.072-.918 0-1.686.521-1.882 1.224h-.11v-1.106h-1.556v7.122h1.614zm5.885.117c.93 0 1.712-.403 2.11-1.094h.11v.977h1.556v-4.863c0-1.51-1.029-2.403-2.858-2.403-1.693 0-2.871.801-3.002 2.058h1.524c.15-.482.657-.743 1.4-.743.872 0 1.34.391 1.34 1.088v.599l-1.835.11c-1.732.105-2.702.847-2.702 2.136 0 1.302.983 2.135 2.357 2.135zm.475-1.27c-.716 0-1.23-.357-1.23-.956 0-.58.423-.905 1.328-.964l1.608-.104v.566c0 .827-.73 1.459-1.706 1.459zm6.856 1.153v-4.147c0-1.048.605-1.712 1.569-1.712.983 0 1.438.546 1.438 1.634v4.225h1.615v-4.61c0-1.699-.866-2.656-2.455-2.656-1.06 0-1.777.489-2.115 1.283h-.111v-1.14h-1.556v7.123h1.615zm9.212.143c1.777 0 3.034-.911 3.034-2.278 0-1.049-.632-1.635-1.993-1.94l-1.256-.287c-.716-.163-1.055-.41-1.055-.814 0-.514.554-.866 1.29-.866.755 0 1.23.32 1.347.82h1.517c-.117-1.295-1.179-2.044-2.871-2.044-1.68 0-2.852.892-2.852 2.181 0 1.075.645 1.706 2.012 2.019l1.263.293c.677.15.983.403.983.807 0 .527-.566.885-1.38.885-.807 0-1.309-.312-1.465-.84h-1.595c.124 1.296 1.243 2.064 3.02 2.064zm6.627-.026c.931 0 1.713-.403 2.11-1.094h.11v.977h1.556v-4.863c0-1.51-1.028-2.403-2.858-2.403-1.692 0-2.87.801-3.001 2.058h1.523c.15-.482.658-.743 1.4-.743.873 0 1.341.391 1.341 1.088v.599l-1.836.11c-1.731.105-2.701.847-2.701 2.136 0 1.302.983 2.135 2.356 2.135zm.476-1.27c-.717 0-1.23-.357-1.23-.956 0-.58.422-.905 1.327-.964l1.608-.104v.566c0 .827-.729 1.459-1.705 1.459zm8.294 1.296c1.803 0 2.923-1.002 3.099-2.493h-1.537c-.169.742-.729 1.14-1.569 1.14-1.1 0-1.764-.873-1.764-2.37 0-1.479.658-2.331 1.764-2.331.886 0 1.42.494 1.57 1.184h1.536c-.17-1.497-1.276-2.539-3.106-2.539-2.142 0-3.398 1.374-3.398 3.685 0 2.344 1.263 3.724 3.405 3.724zm7.441-.11c.313 0 .612-.033.847-.079v-1.263c-.196.02-.32.033-.547.033-.677 0-.977-.313-.977-1.016v-3.496h1.524v-1.289h-1.524v-1.79h-1.608v1.79h-1.126v1.29h1.126v3.886c0 1.38.651 1.934 2.285 1.934zm3.282-8.334c.533 0 .963-.43.963-.97s-.43-.976-.963-.976c-.528 0-.964.436-.964.976s.436.97.964.97zm.807 8.301v-7.122h-1.608v7.122h1.608zm5.071.143c2.13 0 3.425-1.393 3.425-3.704 0-2.305-1.302-3.705-3.425-3.705-2.115 0-3.424 1.407-3.424 3.705 0 2.311 1.289 3.704 3.424 3.704zm0-1.354c-1.126 0-1.77-.86-1.77-2.35 0-1.485.644-2.35 1.77-2.35 1.12 0 1.765.865 1.765 2.35 0 1.49-.638 2.35-1.765 2.35zm6.667 1.211v-4.147c0-1.048.606-1.712 1.57-1.712.982 0 1.438.546 1.438 1.634v4.225h1.615v-4.61c0-1.699-.866-2.656-2.455-2.656-1.061 0-1.777.489-2.116 1.283h-.11v-1.14h-1.556v7.123h1.614zm13.145.143c1.803 0 2.923-1.002 3.099-2.493h-1.537c-.17.742-.729 1.14-1.569 1.14-1.1 0-1.764-.873-1.764-2.37 0-1.479.657-2.331 1.764-2.331.886 0 1.42.494 1.57 1.184h1.536c-.17-1.497-1.276-2.539-3.106-2.539-2.142 0-3.398 1.374-3.398 3.685 0 2.344 1.263 3.724 3.405 3.724zm7.714 0c2.13 0 3.425-1.393 3.425-3.704 0-2.305-1.302-3.705-3.425-3.705-2.115 0-3.424 1.407-3.424 3.705 0 2.311 1.29 3.704 3.425 3.704zm0-1.354c-1.126 0-1.77-.86-1.77-2.35 0-1.485.644-2.35 1.77-2.35 1.12 0 1.765.865 1.765 2.35 0 1.49-.638 2.35-1.764 2.35zm6.667 1.211v-4.33c0-.872.593-1.53 1.393-1.53.795 0 1.29.476 1.29 1.257v4.603h1.568v-4.434c0-.813.554-1.425 1.394-1.425.866 0 1.302.455 1.302 1.373v4.486h1.608v-4.896c0-1.478-.86-2.37-2.285-2.37-.99 0-1.81.515-2.162 1.296h-.11c-.3-.8-.984-1.296-1.967-1.296-.944 0-1.673.482-1.979 1.296h-.11v-1.152h-1.556v7.122h1.614zm12.084 2.37v-3.45h.11c.365.754 1.153 1.197 2.175 1.197 1.797 0 2.916-1.406 2.916-3.678 0-2.285-1.132-3.679-2.936-3.679-.976 0-1.803.489-2.213 1.296h-.111v-1.178h-1.556v9.492h1.615zm1.757-3.627c-1.1 0-1.784-.878-1.79-2.304.006-1.42.697-2.305 1.797-2.305 1.107 0 1.777.866 1.777 2.305s-.664 2.304-1.784 2.304zm6.745 1.257v-9.876h-1.614v9.876h1.614zm5.046.143c1.68 0 2.87-.807 3.164-2.103h-1.53c-.235.528-.788.82-1.589.82-1.06 0-1.745-.742-1.784-1.926v-.085h4.974v-.52c0-2.247-1.217-3.595-3.248-3.595-2.064 0-3.347 1.44-3.347 3.73 0 2.293 1.263 3.68 3.36 3.68zm1.62-4.394h-3.352c.072-1.042.749-1.732 1.712-1.732.97 0 1.608.677 1.64 1.732zm6.036 4.284c.312 0 .612-.033.846-.079v-1.263c-.195.02-.319.033-.547.033-.677 0-.976-.313-.976-1.016v-3.496h1.523v-1.289h-1.523v-1.79h-1.608v1.79h-1.127v1.29h1.127v3.886c0 1.38.65 1.934 2.285 1.934zm5.469.11c1.68 0 2.87-.807 3.164-2.103h-1.53c-.235.528-.788.82-1.589.82-1.06 0-1.745-.742-1.784-1.926v-.085h4.974v-.52c0-2.247-1.217-3.595-3.248-3.595-2.064 0-3.347 1.44-3.347 3.73 0 2.293 1.263 3.68 3.36 3.68zm1.62-4.394h-3.352c.072-1.042.749-1.732 1.712-1.732.97 0 1.608.677 1.64 1.732zm5.815 4.368c.99 0 1.81-.462 2.213-1.243h.11v1.126h1.563v-9.876h-1.614v3.886h-.111c-.378-.78-1.185-1.25-2.161-1.25-1.797 0-2.93 1.42-2.93 3.672 0 2.266 1.126 3.685 2.93 3.685zm.5-1.374c-1.106 0-1.776-.865-1.776-2.304 0-1.432.677-2.305 1.777-2.305 1.107 0 1.79.886 1.79 2.305 0 1.432-.677 2.304-1.79 2.304z"/><path fill="#4574EB" d="M376.547 108.472c.07 0 .127.023.172.068a.243.243 0 01.067.175v.486c0 .071-.023.13-.067.175a.229.229 0 01-.172.068h-5.238c-.327 0-.607.12-.84.357-.233.238-.35.524-.35.859v6.32c0 .333.117.62.35.857.233.238.513.357.84.357h6.191c.327 0 .608-.119.84-.357a1.18 1.18 0 00.35-.858v-2.43c0-.071.023-.13.067-.175a.229.229 0 01.172-.068h.476c.07 0 .126.022.17.068a.236.236 0 01.068.175v2.43a2.13 2.13 0 01-.629 1.546 2.043 2.043 0 01-1.514.642h-6.19c-.59 0-1.095-.214-1.515-.642a2.13 2.13 0 01-.628-1.546v-6.32c0-.602.21-1.117.628-1.545.42-.428.924-.642 1.514-.642zm5.477-.972c.128 0 .24.048.335.144.094.097.141.21.141.342v3.89a.47.47 0 01-.141.34.452.452 0 01-.335.145.454.454 0 01-.335-.144l-1.31-1.337-4.85 4.952a.237.237 0 01-.172.076.233.233 0 01-.171-.076l-.848-.866a.239.239 0 010-.349l4.85-4.952-1.309-1.337a.472.472 0 01-.141-.342c0-.132.047-.245.141-.342a.455.455 0 01.335-.144z"/><path fill="#4574EB" fill-rule="nonzero" d="M393.825 117.734c2.279 0 3.691-1.139 3.691-2.968 0-1.433-.8-2.227-2.708-2.657l-1.08-.247c-1.166-.267-1.641-.638-1.641-1.27 0-.8.716-1.321 1.796-1.321 1.03 0 1.758.52 1.875 1.347h1.609c-.079-1.614-1.504-2.747-3.477-2.747-2.103 0-3.496 1.133-3.496 2.839 0 1.4.8 2.246 2.506 2.63l1.218.28c1.204.28 1.719.677 1.719 1.354 0 .788-.801 1.354-1.908 1.354-1.191 0-2.025-.54-2.129-1.38h-1.64c.084 1.706 1.51 2.786 3.665 2.786zm7.09-.234v-4.134c0-1.022.592-1.712 1.653-1.712.938 0 1.433.553 1.433 1.634v4.212h1.614v-4.596c0-1.693-.924-2.657-2.448-2.657-1.06 0-1.823.482-2.161 1.283h-.117v-3.906H399.3v9.876h1.615zm9.687.143c2.13 0 3.425-1.393 3.425-3.704 0-2.305-1.302-3.705-3.425-3.705-2.116 0-3.424 1.407-3.424 3.705 0 2.311 1.289 3.704 3.424 3.704zm0-1.354c-1.126 0-1.77-.86-1.77-2.35 0-1.485.644-2.35 1.77-2.35 1.12 0 1.765.865 1.765 2.35 0 1.49-.638 2.35-1.765 2.35zm8.086 1.211l1.38-5.13h.111l1.387 5.13h1.699l1.927-7.122h-1.608l-1.178 5.319h-.111l-1.38-5.32h-1.543l-1.367 5.32h-.111l-1.185-5.32h-1.628l1.927 7.123h1.68zm14.538.143c2.129 0 3.424-1.393 3.424-3.704 0-2.305-1.302-3.705-3.424-3.705-2.116 0-3.425 1.407-3.425 3.705 0 2.311 1.29 3.704 3.425 3.704zm0-1.354c-1.126 0-1.77-.86-1.77-2.35 0-1.485.644-2.35 1.77-2.35 1.12 0 1.764.865 1.764 2.35 0 1.49-.638 2.35-1.764 2.35zm6.667 1.211v-4.147c0-1.048.605-1.712 1.569-1.712.983 0 1.438.546 1.438 1.634v4.225h1.615v-4.61c0-1.699-.866-2.656-2.454-2.656-1.062 0-1.778.489-2.116 1.283h-.111v-1.14h-1.556v7.123h1.615zm14.277 0c2.005 0 3.23-1.022 3.23-2.67 0-1.223-.873-2.135-2.136-2.252v-.117c.944-.15 1.673-1.022 1.673-2.012 0-1.445-1.074-2.344-2.858-2.344h-3.926v9.395h4.017zm-.716-5.443h-1.621v-2.617h1.836c1.015 0 1.608.482 1.608 1.309 0 .846-.632 1.308-1.823 1.308zm.332 4.108h-1.953v-2.897h1.888c1.282 0 1.96.495 1.96 1.433 0 .957-.658 1.464-1.895 1.464zm6.946 1.335v-9.876h-1.614v9.876h1.614zm5.111.143c2.129 0 3.425-1.393 3.425-3.704 0-2.305-1.303-3.705-3.425-3.705-2.116 0-3.424 1.407-3.424 3.705 0 2.311 1.289 3.704 3.424 3.704zm0-1.354c-1.126 0-1.77-.86-1.77-2.35 0-1.485.644-2.35 1.77-2.35 1.12 0 1.764.865 1.764 2.35 0 1.49-.638 2.35-1.764 2.35zm8.106 1.354c1.803 0 2.923-1.002 3.099-2.493h-1.537c-.17.742-.73 1.14-1.569 1.14-1.1 0-1.764-.873-1.764-2.37 0-1.479.657-2.331 1.764-2.331.885 0 1.42.494 1.57 1.184h1.536c-.17-1.497-1.277-2.539-3.106-2.539-2.142 0-3.398 1.374-3.398 3.685 0 2.344 1.263 3.724 3.405 3.724zm6.321-.143v-2.48l.573-.573 2.285 3.053h1.953l-3.033-4.069 2.838-3.053h-1.875l-2.63 2.903h-.11v-5.657h-1.615v9.876h1.614zm9.108.143c1.804 0 2.923-1.002 3.1-2.493h-1.537c-.17.742-.73 1.14-1.57 1.14-1.1 0-1.764-.873-1.764-2.37 0-1.479.658-2.331 1.765-2.331.885 0 1.419.494 1.569 1.184h1.536c-.17-1.497-1.276-2.539-3.105-2.539-2.142 0-3.399 1.374-3.399 3.685 0 2.344 1.263 3.724 3.405 3.724zm6.322-.143v-4.134c0-1.022.592-1.712 1.654-1.712.937 0 1.432.553 1.432 1.634v4.212h1.614v-4.596c0-1.693-.924-2.657-2.448-2.657-1.06 0-1.822.482-2.161 1.283h-.117v-3.906h-1.589v9.876h1.615zm8.574.117c.931 0 1.712-.403 2.11-1.094h.11v.977h1.556v-4.863c0-1.51-1.029-2.403-2.858-2.403-1.693 0-2.871.801-3.001 2.058h1.523c.15-.482.658-.743 1.4-.743.872 0 1.341.391 1.341 1.088v.599l-1.836.11c-1.732.105-2.702.847-2.702 2.136 0 1.302.983 2.135 2.357 2.135zm.475-1.27c-.716 0-1.23-.357-1.23-.956 0-.58.423-.905 1.328-.964l1.608-.104v.566c0 .827-.73 1.459-1.706 1.459zm6.062-7.148c.533 0 .963-.43.963-.97s-.43-.976-.963-.976c-.528 0-.964.436-.964.976s.436.97.964.97zm.807 8.301v-7.122h-1.608v7.122h1.608zm3.613 0v-4.147c0-1.048.606-1.712 1.57-1.712.982 0 1.438.546 1.438 1.634v4.225h1.615v-4.61c0-1.699-.866-2.656-2.455-2.656-1.061 0-1.777.489-2.116 1.283h-.11v-1.14h-1.556v7.123h1.614zm7.741.137c.618 0 1.042-.443 1.042-1.029 0-.592-.424-1.029-1.042-1.029-.612 0-1.042.437-1.042 1.03 0 .585.43 1.028 1.042 1.028zm6.237.006c1.803 0 2.923-1.002 3.099-2.493h-1.537c-.169.742-.729 1.14-1.569 1.14-1.1 0-1.764-.873-1.764-2.37 0-1.479.658-2.331 1.764-2.331.886 0 1.42.494 1.57 1.184h1.536c-.17-1.497-1.276-2.539-3.106-2.539-2.141 0-3.398 1.374-3.398 3.685 0 2.344 1.263 3.724 3.405 3.724zm7.715 0c2.129 0 3.424-1.393 3.424-3.704 0-2.305-1.302-3.705-3.424-3.705-2.116 0-3.425 1.407-3.425 3.705 0 2.311 1.29 3.704 3.425 3.704zm0-1.354c-1.126 0-1.771-.86-1.771-2.35 0-1.485.645-2.35 1.77-2.35 1.12 0 1.765.865 1.765 2.35 0 1.49-.638 2.35-1.764 2.35zm6.666 1.211v-4.33c0-.872.593-1.53 1.394-1.53.794 0 1.289.476 1.289 1.257v4.603h1.569v-4.434c0-.813.553-1.425 1.393-1.425.866 0 1.302.455 1.302 1.373v4.486h1.608v-4.896c0-1.478-.86-2.37-2.285-2.37-.99 0-1.81.515-2.161 1.296h-.111c-.3-.8-.983-1.296-1.966-1.296-.944 0-1.673.482-1.98 1.296h-.11v-1.152h-1.556v7.122h1.614z"/><path fill="#A5A5A5" fill-rule="nonzero" d="M37.029 159.167v-6.95h2.535v-1.27H33.03v1.27h2.53v6.95h1.469zm5.167 0l1.936-2.951h.097l1.909 2.95h1.697l-2.711-4.107 2.757-4.113h-1.652l-1.903 3.02h-.097l-1.874-3.02h-1.737l2.666 4.08-2.69 4.14h1.602zm8.619 0v-5.594h.096l4.034 5.594h1.27v-8.22h-1.413v5.588h-.097l-4.033-5.589h-1.276v8.22h1.419zm12.014 0v-8.22h-1.47v8.22h1.47zm5.11 0c2.46 0 3.868-1.51 3.868-4.147 0-2.581-1.425-4.074-3.868-4.074h-3.082v8.22h3.082zm-.194-1.27h-1.419v-5.68h1.419c1.612 0 2.563 1.03 2.563 2.825 0 1.835-.928 2.854-2.563 2.854zm6.648-2.77c.541 0 .911-.38.911-.894 0-.518-.37-.9-.911-.9-.536 0-.912.382-.912.9 0 .513.376.895.912.895zm0 4.16c.541 0 .911-.388.911-.9 0-.52-.37-.9-.911-.9-.536 0-.912.38-.912.9 0 .512.376.9.912.9z"/><path fill="#2B2D31" fill-rule="nonzero" d="M145.84 160v-1.426h-4.245v-.11l2.018-1.967c1.615-1.562 2.09-2.33 2.09-3.424 0-1.563-1.27-2.702-3.138-2.702-1.96 0-3.34 1.244-3.34 3.027h1.576c0-.976.65-1.647 1.673-1.647.983 0 1.569.645 1.569 1.485 0 .703-.286 1.152-1.471 2.337l-3.256 3.262V160h6.524zm4.004 0v-5.788h1.53v-1.289h-1.55v-.644c0-.67.3-1.003 1.061-1.003.228 0 .424.013.554.033v-1.185a5.137 5.137 0 00-.899-.072c-1.582 0-2.304.703-2.304 2.122v.75h-1.166v1.288h1.166V160h1.608zm7.024 0v-9.395h-1.673l-2.454 1.72v1.614l2.337-1.64h.11V160h1.68zm5.684.143c1.68 0 2.871-.807 3.164-2.103h-1.53c-.234.528-.788.82-1.588.82-1.062 0-1.745-.742-1.784-1.926v-.085h4.974v-.52c0-2.247-1.218-3.595-3.249-3.595-2.064 0-3.346 1.44-3.346 3.73 0 2.293 1.263 3.68 3.36 3.68zm1.621-4.394h-3.353c.072-1.042.749-1.732 1.713-1.732.97 0 1.608.677 1.64 1.732zm5.195 4.368c.931 0 1.713-.403 2.11-1.094h.11V160h1.557v-4.863c0-1.51-1.03-2.403-2.859-2.403-1.692 0-2.87.801-3 2.058h1.523c.15-.482.657-.743 1.4-.743.872 0 1.34.391 1.34 1.088v.599l-1.835.11c-1.732.105-2.702.847-2.702 2.136 0 1.302.983 2.135 2.356 2.135zm.476-1.27c-.716 0-1.23-.357-1.23-.956 0-.58.422-.905 1.327-.964l1.608-.104v.566c0 .827-.729 1.459-1.705 1.459zM181.042 160v-1.79h1.27v-1.42h-1.27v-6.185h-2.37a122.27 122.27 0 00-3.828 6.205v1.4h4.59V160h1.608zm-1.582-3.17h-3.06v-.092a101.253 101.253 0 012.968-4.765h.092v4.856zm7.994 3.404c2.051 0 3.425-1.347 3.425-3.32 0-1.888-1.302-3.092-2.91-3.092-.957 0-1.647.332-2.064.911h-.11l.26-2.715h4.323v-1.413h-5.632l-.514 5.47h1.523c.32-.606.938-.977 1.738-.977 1.036 0 1.765.742 1.765 1.849 0 1.132-.73 1.888-1.81 1.888-.957 0-1.68-.567-1.784-1.44h-1.569c.072 1.654 1.42 2.84 3.36 2.84zm8.282-.09c1.803 0 2.923-1.003 3.099-2.494h-1.537c-.17.742-.729 1.14-1.569 1.14-1.1 0-1.764-.873-1.764-2.37 0-1.479.657-2.331 1.764-2.331.886 0 1.42.494 1.57 1.184h1.536c-.17-1.497-1.276-2.539-3.106-2.539-2.142 0-3.398 1.374-3.398 3.685 0 2.344 1.263 3.724 3.405 3.724zm6.77-.144v-5.788h1.53v-1.289h-1.549v-.644c0-.67.3-1.003 1.061-1.003.228 0 .423.013.554.033v-1.185a5.137 5.137 0 00-.899-.072c-1.582 0-2.305.703-2.305 2.122v.75h-1.165v1.288h1.165V160h1.609zm7.025 0v-9.395h-1.673l-2.454 1.72v1.614l2.337-1.64h.11V160h1.68zm4.837 0l4.017-7.962v-1.433h-6.536v1.407h4.844v.104L212.61 160h1.757zm9.109.234c2.03 0 3.541-1.172 3.541-2.793 0-1.276-.8-2.102-2.077-2.298v-.11c.996-.26 1.706-1.016 1.713-2.149.006-1.354-1.12-2.513-3.119-2.513-2.038 0-3.314 1.152-3.398 2.813h1.575c.072-.925.71-1.446 1.732-1.446.996 0 1.589.606 1.589 1.374 0 .84-.665 1.426-1.628 1.426h-1.146v1.282h1.179c1.158 0 1.861.573 1.861 1.498 0 .898-.761 1.504-1.842 1.504-1.087 0-1.823-.554-1.894-1.42h-1.609c.079 1.713 1.478 2.832 3.523 2.832zm9.303-.117c1.797 0 2.923-1.413 2.923-3.678 0-2.279-1.12-3.679-2.923-3.679-.977 0-1.797.476-2.168 1.25h-.11v-3.886h-1.615V160h1.556v-1.126h.11c.404.78 1.23 1.243 2.227 1.243zm-.508-1.374c-1.107 0-1.797-.885-1.797-2.304 0-1.42.697-2.305 1.797-2.305s1.771.873 1.771 2.305c0 1.432-.664 2.304-1.77 2.304zm11.57 1.257v-1.426h-4.246v-.11l2.019-1.967c1.614-1.562 2.09-2.33 2.09-3.424 0-1.563-1.27-2.702-3.139-2.702-1.96 0-3.34 1.244-3.34 3.027h1.576c0-.976.651-1.647 1.673-1.647.983 0 1.57.645 1.57 1.485 0 .703-.287 1.152-1.472 2.337l-3.255 3.262V160h6.523zm4.003 0v-5.788h1.53v-1.289h-1.55v-.644c0-.67.3-1.003 1.062-1.003.228 0 .423.013.553.033v-1.185a5.125 5.125 0 00-.898-.072c-1.582 0-2.305.703-2.305 2.122v.75h-1.165v1.288h1.165V160h1.608zm5.046.117c.93 0 1.712-.403 2.109-1.094h.11V160h1.557v-4.863c0-1.51-1.029-2.403-2.858-2.403-1.693 0-2.871.801-3.002 2.058h1.524c.15-.482.657-.743 1.4-.743.872 0 1.34.391 1.34 1.088v.599l-1.835.11c-1.732.105-2.702.847-2.702 2.136 0 1.302.983 2.135 2.357 2.135zm.475-1.27c-.716 0-1.23-.357-1.23-.956 0-.58.423-.905 1.328-.964l1.608-.104v.566c0 .827-.73 1.459-1.706 1.459zm8.613 1.387c2.031 0 3.542-1.172 3.542-2.793 0-1.276-.8-2.102-2.077-2.298v-.11c.996-.26 1.706-1.016 1.712-2.149.007-1.354-1.12-2.513-3.118-2.513-2.038 0-3.314 1.152-3.399 2.813h1.576c.071-.925.71-1.446 1.732-1.446.996 0 1.588.606 1.588 1.374 0 .84-.664 1.426-1.627 1.426h-1.146v1.282h1.178c1.159 0 1.862.573 1.862 1.498 0 .898-.762 1.504-1.842 1.504-1.088 0-1.823-.554-1.895-1.42h-1.608c.078 1.713 1.478 2.832 3.522 2.832zm8.399-.09c1.803 0 2.923-1.003 3.099-2.494h-1.537c-.17.742-.73 1.14-1.569 1.14-1.1 0-1.764-.873-1.764-2.37 0-1.479.657-2.331 1.764-2.331.886 0 1.42.494 1.57 1.184h1.536c-.17-1.497-1.276-2.539-3.106-2.539-2.142 0-3.398 1.374-3.398 3.685 0 2.344 1.263 3.724 3.405 3.724zm10.599-.144v-1.79h1.27v-1.42h-1.27v-6.185h-2.37a122.27 122.27 0 00-3.828 6.205v1.4h4.59V160h1.608zm-1.582-3.17h-3.06v-.092a101.253 101.253 0 012.968-4.765h.092v4.856zm6.549 3.287c.931 0 1.712-.403 2.11-1.094h.11V160h1.556v-4.863c0-1.51-1.029-2.403-2.858-2.403-1.693 0-2.871.801-3.001 2.058h1.523c.15-.482.658-.743 1.4-.743.872 0 1.341.391 1.341 1.088v.599l-1.836.11c-1.732.105-2.702.847-2.702 2.136 0 1.302.983 2.135 2.357 2.135zm.475-1.27c-.716 0-1.23-.357-1.23-.956 0-.58.423-.905 1.328-.964l1.608-.104v.566c0 .827-.73 1.459-1.706 1.459zm7.37 1.153v-5.788h1.53v-1.289h-1.55v-.644c0-.67.3-1.003 1.062-1.003.228 0 .423.013.553.033v-1.185a5.125 5.125 0 00-.898-.072c-1.582 0-2.305.703-2.305 2.122v.75h-1.165v1.288h1.165V160h1.608zm6.53.234c2.246 0 3.58-1.823 3.58-4.928 0-3.119-1.353-4.935-3.58-4.935-2.233 0-3.587 1.816-3.587 4.922 0 3.118 1.334 4.941 3.587 4.941zm0-1.393c-1.191 0-1.888-1.217-1.888-3.548 0-2.311.71-3.522 1.888-3.522s1.882 1.204 1.882 3.522c0 2.33-.69 3.548-1.882 3.548zm9.355 1.159v-9.395h-1.673l-2.454 1.72v1.614l2.337-1.64h.11V160h1.68zm4.805 0v-5.788h1.53v-1.289h-1.55v-.644c0-.67.3-1.003 1.062-1.003.228 0 .423.013.553.033v-1.185a5.125 5.125 0 00-.898-.072c-1.582 0-2.305.703-2.305 2.122v.75h-1.165v1.288h1.165V160h1.608zm4.766 0v-4.134c0-1.022.592-1.712 1.653-1.712.938 0 1.433.553 1.433 1.634V160h1.614v-4.596c0-1.693-.924-2.657-2.448-2.657-1.06 0-1.823.482-2.161 1.283h-.117v-3.906h-1.589V160h1.615zm9.89.228c2.388 0 3.808-1.869 3.808-5.033 0-3.105-1.51-4.824-3.757-4.824-2.044 0-3.49 1.374-3.49 3.3 0 1.804 1.303 3.12 3.093 3.12 1.1 0 1.992-.508 2.435-1.4h.11c-.019 2.174-.807 3.43-2.18 3.43-.808 0-1.452-.436-1.654-1.139h-1.673c.273 1.537 1.588 2.546 3.307 2.546zm.058-4.766c-1.094 0-1.85-.755-1.85-1.842 0-1.048.795-1.85 1.856-1.85s1.856.815 1.856 1.882c0 1.049-.775 1.81-1.862 1.81zm8.138 4.655c.99 0 1.81-.462 2.213-1.243h.11V160h1.563v-9.876h-1.614v3.886h-.11c-.378-.78-1.186-1.25-2.162-1.25-1.797 0-2.93 1.42-2.93 3.672 0 2.266 1.126 3.685 2.93 3.685zm.501-1.374c-1.107 0-1.777-.865-1.777-2.304 0-1.432.677-2.305 1.777-2.305 1.107 0 1.79.886 1.79 2.305 0 1.432-.677 2.304-1.79 2.304zm7.552 1.257v-5.788h1.53v-1.289h-1.55v-.644c0-.67.3-1.003 1.062-1.003.228 0 .423.013.553.033v-1.185a5.125 5.125 0 00-.898-.072c-1.582 0-2.305.703-2.305 2.122v.75h-1.165v1.288h1.165V160h1.608zm9.043 0v-1.79h1.27v-1.42h-1.27v-6.185h-2.37a122.27 122.27 0 00-3.828 6.205v1.4h4.59V160h1.608zm-1.582-3.17h-3.06v-.092a100.439 100.439 0 012.969-4.765h.091v4.856zm10.547 3.17v-1.79h1.27v-1.42h-1.27v-6.185h-2.37a122.27 122.27 0 00-3.828 6.205v1.4h4.59V160h1.608zm-1.582-3.17h-3.06v-.092a100.439 100.439 0 012.969-4.765h.09v4.856zm8.034 3.404c2.246 0 3.58-1.823 3.58-4.928 0-3.119-1.354-4.935-3.58-4.935-2.233 0-3.587 1.816-3.587 4.922 0 3.118 1.334 4.941 3.587 4.941zm0-1.393c-1.192 0-1.888-1.217-1.888-3.548 0-2.311.71-3.522 1.888-3.522s1.881 1.204 1.881 3.522c0 2.33-.69 3.548-1.881 3.548zM381.217 160v-1.79h1.27v-1.42h-1.27v-6.185h-2.37a122.265 122.265 0 00-3.827 6.205v1.4h4.59V160h1.607zm-1.582-3.17h-3.06v-.092a100.446 100.446 0 012.97-4.765h.09v4.856zm7.963 3.404c2.03 0 3.541-1.172 3.541-2.793 0-1.276-.8-2.102-2.077-2.298v-.11c.997-.26 1.706-1.016 1.713-2.149.006-1.354-1.12-2.513-3.119-2.513-2.038 0-3.314 1.152-3.398 2.813h1.575c.072-.925.71-1.446 1.732-1.446.996 0 1.589.606 1.589 1.374 0 .84-.664 1.426-1.628 1.426h-1.146v1.282h1.179c1.158 0 1.862.573 1.862 1.498 0 .898-.762 1.504-1.843 1.504-1.087 0-1.823-.554-1.894-1.42h-1.608c.078 1.713 1.477 2.832 3.522 2.832zm7.506-.234l4.017-7.962v-1.433h-6.536v1.407h4.843v.104L393.346 160h1.758zm11.693 0v-1.79h1.27v-1.42h-1.27v-6.185h-2.37a122.27 122.27 0 00-3.828 6.205v1.4h4.59V160h1.608zm-1.582-3.17h-3.06v-.092a100.439 100.439 0 012.969-4.765h.09v4.856zm6.719 3.17v-5.788h1.53v-1.289h-1.55v-.644c0-.67.3-1.003 1.061-1.003.228 0 .423.013.554.033v-1.185a5.137 5.137 0 00-.899-.072c-1.582 0-2.304.703-2.304 2.122v.75h-1.166v1.288h1.166V160h1.608zm6.673.228c2.044 0 3.49-1.367 3.49-3.3 0-1.804-1.31-3.12-3.093-3.12-1.107 0-1.992.515-2.435 1.4h-.11c.012-2.22.826-3.43 2.22-3.43.833 0 1.445.423 1.607 1.145h1.68c-.234-1.523-1.517-2.552-3.32-2.552-2.33 0-3.796 1.875-3.796 5.033 0 3.222 1.582 4.824 3.757 4.824zm-.013-1.4c-1.061 0-1.856-.814-1.856-1.888 0-1.055.769-1.823 1.862-1.823 1.094 0 1.85.768 1.85 1.856a1.823 1.823 0 01-1.856 1.855zm8.372 1.315c1.804 0 2.923-1.002 3.1-2.493h-1.537c-.17.742-.73 1.14-1.57 1.14-1.1 0-1.764-.873-1.764-2.37 0-1.479.658-2.331 1.765-2.331.885 0 1.419.494 1.569 1.184h1.536c-.17-1.497-1.276-2.539-3.105-2.539-2.142 0-3.399 1.374-3.399 3.685 0 2.344 1.263 3.724 3.405 3.724zm7.695 0c1.804 0 2.924-1.002 3.1-2.493h-1.537c-.17.742-.73 1.14-1.57 1.14-1.1 0-1.763-.873-1.763-2.37 0-1.479.657-2.331 1.764-2.331.885 0 1.42.494 1.569 1.184h1.536c-.169-1.497-1.276-2.539-3.105-2.539-2.142 0-3.398 1.374-3.398 3.685 0 2.344 1.263 3.724 3.404 3.724zm8.138.091c2.168 0 3.653-1.12 3.653-2.754 0-1.21-.807-2.161-2.031-2.389v-.11c1.009-.254 1.647-1.055 1.647-2.064 0-1.485-1.354-2.546-3.262-2.546s-3.268 1.061-3.268 2.546c0 1.002.65 1.816 1.653 2.063v.111c-1.23.26-2.03 1.205-2.03 2.396 0 1.628 1.484 2.747 3.638 2.747zm.007-5.761c-.957 0-1.615-.567-1.615-1.394 0-.84.651-1.419 1.615-1.419.957 0 1.608.58 1.608 1.42 0 .826-.657 1.393-1.608 1.393zm0 4.453c-1.133 0-1.914-.645-1.914-1.582 0-.938.781-1.582 1.914-1.582 1.126 0 1.908.644 1.908 1.582 0 .937-.775 1.582-1.908 1.582zm8.757 1.302c2.389 0 3.808-1.869 3.808-5.033 0-3.105-1.51-4.824-3.756-4.824-2.045 0-3.49 1.374-3.49 3.3 0 1.804 1.302 3.12 3.092 3.12 1.1 0 1.993-.508 2.435-1.4h.111c-.02 2.174-.807 3.43-2.181 3.43-.807 0-1.452-.436-1.654-1.139h-1.673c.274 1.537 1.589 2.546 3.308 2.546zm.058-4.766c-1.094 0-1.849-.755-1.849-1.842 0-1.048.794-1.85 1.856-1.85 1.06 0 1.855.815 1.855 1.882 0 1.049-.775 1.81-1.862 1.81zM463.138 160v-1.79h1.27v-1.42h-1.27v-6.185h-2.37a122.27 122.27 0 00-3.828 6.205v1.4h4.59V160h1.608zm-1.582-3.17h-3.06v-.092a100.439 100.439 0 012.969-4.765h.091v4.856zm7.995 3.404c2.05 0 3.424-1.347 3.424-3.32 0-1.888-1.302-3.092-2.91-3.092-.957 0-1.647.332-2.064.911h-.11l.26-2.715h4.323v-1.413h-5.632l-.514 5.47h1.524c.319-.606.937-.977 1.738-.977 1.035 0 1.764.742 1.764 1.849 0 1.132-.729 1.888-1.81 1.888-.957 0-1.68-.567-1.784-1.44h-1.569c.072 1.654 1.42 2.84 3.36 2.84zm7.903-.09c1.778 0 3.034-.912 3.034-2.28 0-1.048-.631-1.634-1.992-1.94l-1.256-.286c-.717-.163-1.055-.41-1.055-.814 0-.514.553-.866 1.289-.866.755 0 1.23.32 1.348.82h1.517c-.118-1.295-1.179-2.044-2.872-2.044-1.68 0-2.851.892-2.851 2.181 0 1.075.644 1.706 2.012 2.019l1.263.293c.677.15.983.403.983.807 0 .527-.567.885-1.38.885-.808 0-1.31-.312-1.465-.84h-1.595c.123 1.296 1.243 2.064 3.02 2.064zm7.728 2.564c2.077 0 3.392-1.035 3.392-2.682v-7.148h-1.556v1.139h-.11c-.391-.775-1.237-1.257-2.207-1.257-1.817 0-2.943 1.42-2.943 3.6 0 2.143 1.12 3.536 2.916 3.536.99 0 1.765-.417 2.175-1.179h.11v1.348c0 .892-.644 1.413-1.75 1.413-.886 0-1.459-.313-1.563-.8h-1.621c.13 1.223 1.328 2.03 3.157 2.03zm0-4.127c-1.126 0-1.764-.86-1.764-2.22 0-1.361.638-2.227 1.764-2.227 1.12 0 1.804.866 1.804 2.227 0 1.36-.677 2.22-1.804 2.22zm7.051 1.419v-4.134c0-1.022.593-1.712 1.654-1.712.937 0 1.432.553 1.432 1.634V160h1.615v-4.596c0-1.693-.925-2.657-2.448-2.657-1.062 0-1.823.482-2.162 1.283h-.117v-3.906h-1.589V160h1.615zm12.572 0v-1.79h1.27v-1.42h-1.27v-6.185h-2.37a122.27 122.27 0 00-3.828 6.205v1.4h4.59V160h1.608zm-1.582-3.17h-3.06v-.092a100.439 100.439 0 012.969-4.765h.09v4.856zm11.106 3.17v-1.426h-4.244v-.11l2.018-1.967c1.614-1.562 2.09-2.33 2.09-3.424 0-1.563-1.27-2.702-3.138-2.702-1.96 0-3.34 1.244-3.34 3.027h1.575c0-.976.651-1.647 1.674-1.647.983 0 1.569.645 1.569 1.485 0 .703-.287 1.152-1.472 2.337l-3.255 3.262V160h6.523zm5.32.234c2.246 0 3.58-1.823 3.58-4.928 0-3.119-1.354-4.935-3.58-4.935-2.234 0-3.588 1.816-3.588 4.922 0 3.118 1.335 4.941 3.587 4.941zm0-1.393c-1.192 0-1.889-1.217-1.889-3.548 0-2.311.71-3.522 1.888-3.522 1.179 0 1.882 1.204 1.882 3.522 0 2.33-.69 3.548-1.882 3.548zm8.424 1.302c1.68 0 2.871-.807 3.164-2.103h-1.53c-.234.528-.788.82-1.589.82-1.06 0-1.744-.742-1.783-1.926v-.085h4.974v-.52c0-2.247-1.218-3.595-3.25-3.595-2.063 0-3.345 1.44-3.345 3.73 0 2.293 1.263 3.68 3.359 3.68zm1.621-4.394h-3.353c.072-1.042.749-1.732 1.712-1.732.97 0 1.608.677 1.641 1.732zm5.365 4.251v-5.788h1.53v-1.289h-1.55v-.644c0-.67.3-1.003 1.061-1.003.228 0 .423.013.554.033v-1.185a5.137 5.137 0 00-.899-.072c-1.582 0-2.304.703-2.304 2.122v.75h-1.166v1.288h1.166V160h1.608z"/><path fill="#A5A5A5" fill-rule="nonzero" d="M34.984 187.5v-3.333h3.446v-1.224h-3.446v-2.393h3.77v-1.27h-5.24v8.22h1.47zm6.66 0v-3.6c0-.872.637-1.442 1.554-1.442.24 0 .615.04.724.08v-1.31a2.427 2.427 0 00-.587-.063c-.803 0-1.475.456-1.646 1.071h-.097v-.968H40.23v6.232h1.413zm6.123.125c1.863 0 2.996-1.219 2.996-3.241 0-2.017-1.139-3.241-2.996-3.241-1.851 0-2.996 1.23-2.996 3.241 0 2.022 1.127 3.241 2.996 3.241zm0-1.185c-.986 0-1.55-.752-1.55-2.056 0-1.299.564-2.057 1.55-2.057.98 0 1.544.758 1.544 2.057 0 1.304-.559 2.056-1.544 2.056zm5.833 1.06v-3.788c0-.764.519-1.339 1.22-1.339.694 0 1.127.416 1.127 1.1v4.027h1.373v-3.88c0-.711.484-1.247 1.22-1.247.757 0 1.139.399 1.139 1.202v3.925h1.407v-4.284c0-1.293-.752-2.073-2-2.073-.866 0-1.584.45-1.891 1.133h-.097c-.262-.7-.86-1.133-1.72-1.133-.826 0-1.464.421-1.732 1.133h-.097v-1.008h-1.361v6.232H53.6zm10.214-4.039c.541 0 .912-.382.912-.894 0-.519-.37-.9-.912-.9-.535 0-.911.381-.911.9 0 .512.376.894.911.894zm0 4.159c.541 0 .912-.388.912-.9 0-.519-.37-.9-.912-.9-.535 0-.911.381-.911.9 0 .512.376.9.911.9z"/><path fill="#6B6B6B" fill-rule="nonzero" d="M144.412 187.5v-1.567h1.11v-1.241h-1.11v-5.412h-2.074a107.182 107.182 0 00-3.35 5.429v1.224h4.017v1.567h1.407zm-1.385-2.774h-2.677v-.08a87.553 87.553 0 012.598-4.17h.08v4.25zm9.485 2.774v-1.27h-3.85v-2.302h3.64v-1.196h-3.64v-2.182h3.85v-1.27h-5.32v8.22h5.32zm7.332 2.074v-8.306h-1.373v1.031h-.097c-.342-.695-1.082-1.134-1.925-1.134-1.573 0-2.57 1.248-2.57 3.213 0 1.983.975 3.225 2.547 3.225.883 0 1.538-.382 1.897-1.049h.097v3.02h1.424zm-2.974-3.173c-.968 0-1.544-.752-1.544-2.017 0-1.259.581-2.017 1.55-2.017.963 0 1.572.775 1.572 2.017 0 1.248-.604 2.017-1.578 2.017zm7.759 1.304c1.897 0 3.196-.98 3.196-2.41 0-1.06-.707-1.89-1.778-2.09v-.097c.883-.222 1.442-.923 1.442-1.806 0-1.299-1.185-2.227-2.854-2.227-1.67 0-2.86.928-2.86 2.227 0 .877.57 1.59 1.447 1.806v.097c-1.077.228-1.778 1.054-1.778 2.096 0 1.424 1.3 2.404 3.185 2.404zm.006-5.041c-.838 0-1.413-.496-1.413-1.22 0-.734.57-1.241 1.413-1.241.837 0 1.407.507 1.407 1.241 0 .724-.576 1.22-1.407 1.22zm0 3.896c-.992 0-1.675-.564-1.675-1.384s.683-1.384 1.675-1.384c.985 0 1.669.563 1.669 1.384 0 .82-.678 1.384-1.67 1.384zm6.363.94v-5.594h.097l4.033 5.594h1.27v-8.22h-1.413v5.588h-.096l-4.034-5.588h-1.276v8.22h1.419zm10.345.205c1.897 0 3.196-.98 3.196-2.41 0-1.06-.707-1.89-1.778-2.09v-.097c.883-.222 1.441-.923 1.441-1.806 0-1.299-1.184-2.227-2.854-2.227-1.669 0-2.86.928-2.86 2.227 0 .877.57 1.59 1.448 1.806v.097c-1.077.228-1.778 1.054-1.778 2.096 0 1.424 1.3 2.404 3.185 2.404zm.005-5.041c-.837 0-1.412-.496-1.412-1.22 0-.734.57-1.241 1.412-1.241.838 0 1.408.507 1.408 1.241 0 .724-.576 1.22-1.408 1.22zm0 3.896c-.99 0-1.674-.564-1.674-1.384s.683-1.384 1.674-1.384c.986 0 1.67.563 1.67 1.384 0 .82-.678 1.384-1.67 1.384zm10.5.94v-1.248h-3.715v-.096l1.766-1.72c1.413-1.368 1.829-2.04 1.829-2.997 0-1.367-1.111-2.364-2.746-2.364-1.715 0-2.922 1.088-2.922 2.649h1.378c0-.855.57-1.442 1.464-1.442.86 0 1.373.564 1.373 1.3 0 .614-.25 1.008-1.287 2.044l-2.849 2.854v1.02h5.708zm4.62.205c1.993 0 3.23-.997 3.23-2.598 0-1.253-.701-1.948-2.37-2.324l-.946-.216c-1.02-.234-1.436-.559-1.436-1.111 0-.7.627-1.157 1.573-1.157.9 0 1.538.456 1.64 1.18h1.407c-.068-1.413-1.316-2.404-3.042-2.404-1.84 0-3.059.99-3.059 2.483 0 1.225.7 1.966 2.193 2.302l1.066.245c1.054.245 1.504.592 1.504 1.185 0 .689-.701 1.185-1.67 1.185-1.042 0-1.771-.473-1.862-1.208h-1.436c.074 1.492 1.322 2.438 3.207 2.438zm6.203-.205v-2.17l.501-.502 2 2.672h1.709l-2.655-3.56 2.484-2.672h-1.64l-2.302 2.54h-.097v-4.95h-1.413v8.642h1.413zm6.71 0v-3.788c0-.764.519-1.339 1.22-1.339.695 0 1.128.416 1.128 1.1v4.027h1.372v-3.88c0-.711.485-1.247 1.22-1.247.757 0 1.139.399 1.139 1.202v3.925h1.407v-4.284c0-1.293-.752-2.073-2-2.073-.866 0-1.583.45-1.89 1.133h-.098c-.262-.7-.86-1.133-1.72-1.133-.826 0-1.464.421-1.732 1.133h-.097v-1.008h-1.361v6.232h1.413zm9.89-7.263c.467 0 .843-.376.843-.849s-.376-.854-.843-.854c-.462 0-.843.381-.843.854s.381.849.843.849zm-1.402 9.394c1.396 0 2.097-.621 2.097-1.897v-6.466h-1.407v6.443c0 .564-.222.797-.849.797l-.182-.005v1.11c.04.006.267.018.341.018zm7.31-2.028c1.571 0 2.557-1.237 2.557-3.219 0-1.994-.98-3.219-2.558-3.219-.854 0-1.572.416-1.897 1.094h-.097v-3.4h-1.412v8.641h1.361v-.986h.097c.353.684 1.077 1.089 1.948 1.089zm-.445-1.202c-.969 0-1.572-.775-1.572-2.017s.61-2.017 1.572-2.017c.963 0 1.55.764 1.55 2.017s-.582 2.017-1.55 2.017zm8.522 1.099l2.843-8.22h-1.567l-2.05 6.505h-.098l-2.067-6.505h-1.624l2.871 8.22h1.692zm10.282 0v-1.27h-4.414v-.097l4.306-5.85v-1.003h-6.021v1.27h4.204v.097l-4.324 5.85v1.003h6.25zm3.27 0v-3.082h1.63l1.612 3.082h1.68l-1.794-3.31c.98-.353 1.55-1.259 1.55-2.341 0-1.578-1.083-2.57-2.81-2.57h-3.337v8.221h1.47zm1.698-4.25h-1.698v-2.75h1.664c.934 0 1.504.524 1.504 1.378 0 .872-.536 1.373-1.47 1.373zm7.263 4.25l1.208-4.489h.097l1.213 4.489h1.487l1.686-6.232h-1.407l-1.031 4.654h-.097l-1.208-4.654h-1.35l-1.196 4.654h-.097l-1.037-4.654h-1.424l1.686 6.232h1.47zm8.54 0v-3.082h1.628l1.613 3.082h1.68l-1.794-3.31c.98-.353 1.55-1.259 1.55-2.341 0-1.578-1.083-2.57-2.81-2.57h-3.337v8.221h1.47zm1.697-4.25h-1.698v-2.75h1.664c.934 0 1.504.524 1.504 1.378 0 .872-.536 1.373-1.47 1.373zm6.226 4.25v-8.22h-1.47v8.22h1.47zm7.093 0v-1.567h1.11v-1.241h-1.11v-5.412h-2.074a106.467 106.467 0 00-3.35 5.429v1.224h4.016v1.567h1.408zm-1.385-2.774h-2.677v-.08a87.553 87.553 0 012.598-4.17h.08v4.25zm5.042 2.774l.706-2.102h3.025l.695 2.102h1.578l-2.922-8.22h-1.652l-2.917 8.22h1.487zm3.39-3.264h-2.342l1.128-3.39h.097l1.116 3.39zm10.048 3.264v-1.27h-4.415v-.097l4.307-5.85v-1.003h-6.021v1.27h4.204v.097l-4.324 5.85v1.003h6.25zm3.065 0v-3.788c0-.764.518-1.339 1.219-1.339.695 0 1.128.416 1.128 1.1v4.027h1.373v-3.88c0-.711.484-1.247 1.219-1.247.757 0 1.14.399 1.14 1.202v3.925h1.406v-4.284c0-1.293-.752-2.073-2-2.073-.865 0-1.583.45-1.89 1.133h-.097c-.262-.7-.86-1.133-1.72-1.133-.827 0-1.465.421-1.733 1.133h-.096v-1.008h-1.362v6.232h1.413zm10.214.011l1.27-2.147h.097l1.276 2.147h1.595l-2.034-3.15 2.011-3.082h-1.555l-1.23 2.142h-.097l-1.236-2.142h-1.64l2.033 3.14-2.017 3.092h1.527zm8.46.194c1.993 0 3.23-.997 3.23-2.598 0-1.253-.701-1.948-2.37-2.324l-.946-.216c-1.02-.234-1.436-.559-1.436-1.111 0-.7.627-1.157 1.573-1.157.9 0 1.538.456 1.64 1.18h1.407c-.068-1.413-1.316-2.404-3.042-2.404-1.84 0-3.059.99-3.059 2.483 0 1.225.7 1.966 2.193 2.302l1.066.245c1.054.245 1.504.592 1.504 1.185 0 .689-.701 1.185-1.67 1.185-1.042 0-1.771-.473-1.862-1.208h-1.436c.074 1.492 1.322 2.438 3.207 2.438zm6.146 1.869v-3.02h.097c.319.661 1.008 1.049 1.903 1.049 1.572 0 2.552-1.23 2.552-3.219 0-2-.992-3.219-2.57-3.219-.854 0-1.578.428-1.936 1.134h-.097v-1.031h-1.362v8.306h1.413zm1.538-3.173c-.963 0-1.56-.77-1.566-2.017.005-1.242.61-2.017 1.572-2.017.968 0 1.555.758 1.555 2.017s-.581 2.017-1.56 2.017zm9.9 1.099v-1.27h-3.85v-2.302h3.64v-1.196h-3.64v-2.182h3.85v-1.27h-5.32v8.22h5.32zm5.777 0l2.843-8.22h-1.567l-2.05 6.505h-.097l-2.068-6.505h-1.624l2.871 8.22h1.692zm5.355 0l1.937-2.95h.097l1.908 2.95h1.698l-2.712-4.107 2.757-4.113h-1.652l-1.902 3.019h-.097l-1.874-3.02h-1.738l2.666 4.08-2.689 4.141h1.601zm13.222 0v-1.27h-4.415v-.097l4.307-5.85v-1.003h-6.022v1.27h4.204v.097l-4.323 5.85v1.003h6.249zm4.284.125c1.47 0 2.512-.706 2.768-1.84h-1.338c-.206.462-.69.718-1.39.718-.929 0-1.527-.65-1.561-1.686v-.074h4.352v-.456c0-1.965-1.065-3.144-2.843-3.144-1.806 0-2.928 1.259-2.928 3.264s1.105 3.218 2.94 3.218zm1.418-3.845h-2.934c.063-.911.656-1.515 1.499-1.515.848 0 1.407.592 1.435 1.515zm5.782 3.925c1.778 0 3.1-1.025 3.1-2.444 0-1.116-.702-1.84-1.818-2.01v-.098c.872-.227 1.492-.888 1.498-1.88.006-1.184-.98-2.198-2.729-2.198-1.783 0-2.9 1.008-2.973 2.46h1.378c.063-.808.621-1.264 1.516-1.264.871 0 1.39.53 1.39 1.202 0 .735-.581 1.248-1.424 1.248h-1.003v1.122h1.031c1.014 0 1.63.501 1.63 1.31 0 .786-.667 1.316-1.613 1.316-.951 0-1.595-.484-1.658-1.242H368.5c.069 1.498 1.293 2.478 3.082 2.478zm6.09-.205v-3.6c0-.872.638-1.442 1.555-1.442.24 0 .615.04.724.08v-1.31a2.427 2.427 0 00-.587-.063c-.803 0-1.476.456-1.647 1.071h-.096v-.968h-1.362v6.232h1.413zm5.69.103c.867 0 1.584-.405 1.938-1.089h.097v.986h1.367v-8.642h-1.413v3.401h-.097c-.33-.683-1.037-1.094-1.891-1.094-1.572 0-2.564 1.242-2.564 3.213 0 1.983.986 3.225 2.564 3.225zm.44-1.202c-.969 0-1.556-.758-1.556-2.017 0-1.253.593-2.017 1.555-2.017.969 0 1.567.775 1.567 2.017 0 1.253-.592 2.017-1.567 2.017zm7.724 1.304c1.994 0 3.23-.997 3.23-2.598 0-1.253-.7-1.948-2.37-2.324l-.945-.216c-1.02-.234-1.436-.559-1.436-1.111 0-.7.627-1.157 1.572-1.157.9 0 1.538.456 1.641 1.18h1.407c-.068-1.413-1.316-2.404-3.042-2.404-1.84 0-3.06.99-3.06 2.483 0 1.225.702 1.966 2.194 2.302l1.065.245c1.054.245 1.504.592 1.504 1.185 0 .689-.7 1.185-1.669 1.185-1.042 0-1.771-.473-1.863-1.208h-1.435c.074 1.492 1.321 2.438 3.207 2.438z"/><path fill="#A5A5A5" fill-rule="nonzero" d="M37.029 214.167v-6.95h2.535v-1.27H33.03v1.27h2.53v6.95h1.469zm6.614.125c1.862 0 2.996-1.22 2.996-3.241 0-2.017-1.14-3.242-2.996-3.242-1.852 0-2.997 1.23-2.997 3.242 0 2.022 1.128 3.241 2.997 3.241zm0-1.185c-.986 0-1.55-.752-1.55-2.056 0-1.3.564-2.057 1.55-2.057.98 0 1.543.758 1.543 2.057 0 1.304-.558 2.056-1.543 2.056zm5.474-2.98c.541 0 .911-.38.911-.894 0-.518-.37-.9-.911-.9-.535 0-.911.382-.911.9 0 .513.376.895.911.895zm0 4.16c.541 0 .911-.388.911-.9 0-.52-.37-.9-.911-.9-.535 0-.911.38-.911.9 0 .512.376.9.911.9z"/><path fill="#6B6B6B" fill-rule="nonzero" d="M141.87 214.292c1.579 0 2.559-.877 2.713-2.182h-1.345c-.148.65-.638.997-1.373.997-.962 0-1.544-.763-1.544-2.073 0-1.294.576-2.04 1.544-2.04.775 0 1.242.433 1.373 1.037h1.345c-.149-1.31-1.117-2.222-2.718-2.222-1.874 0-2.973 1.202-2.973 3.225 0 2.05 1.105 3.258 2.979 3.258zm6.734 0c1.578 0 2.558-.877 2.712-2.182h-1.344c-.149.65-.639.997-1.373.997-.963 0-1.544-.763-1.544-2.073 0-1.294.575-2.04 1.544-2.04.774 0 1.241.433 1.373 1.037h1.344c-.148-1.31-1.117-2.222-2.717-2.222-1.875 0-2.974 1.202-2.974 3.225 0 2.05 1.105 3.258 2.98 3.258zm7.508-.125v-8.22h-1.464l-2.147 1.503v1.413l2.045-1.435h.097v6.739h1.47zm7.999 2.073v-8.305h-1.373v1.03h-.097c-.342-.694-1.083-1.133-1.926-1.133-1.572 0-2.569 1.248-2.569 3.213 0 1.982.974 3.224 2.547 3.224.883 0 1.538-.381 1.897-1.048h.096v3.02h1.425zm-2.974-3.173c-.969 0-1.544-.752-1.544-2.016 0-1.26.581-2.017 1.55-2.017.962 0 1.572.775 1.572 2.017 0 1.247-.604 2.016-1.578 2.016zm7.838 1.299c1.79 0 3.054-1.196 3.054-2.888 0-1.578-1.145-2.729-2.706-2.729-.969 0-1.743.45-2.13 1.225h-.097c.01-1.943.723-3.002 1.942-3.002.73 0 1.265.37 1.407 1.002h1.47c-.205-1.333-1.327-2.233-2.905-2.233-2.04 0-3.322 1.641-3.322 4.404 0 2.82 1.385 4.221 3.287 4.221zm-.011-1.225c-.929 0-1.624-.712-1.624-1.652 0-.923.673-1.595 1.63-1.595.957 0 1.618.672 1.618 1.624 0 .917-.701 1.623-1.624 1.623zm7.668 1.23c1.965 0 3.133-1.594 3.133-4.312 0-2.728-1.185-4.318-3.133-4.318-1.954 0-3.14 1.59-3.14 4.307 0 2.729 1.169 4.324 3.14 4.324zm0-1.218c-1.043 0-1.652-1.066-1.652-3.105 0-2.022.62-3.082 1.652-3.082 1.03 0 1.646 1.054 1.646 3.082 0 2.04-.604 3.105-1.646 3.105zm6.152 1.014v-3.789c0-.763.518-1.338 1.22-1.338.694 0 1.127.416 1.127 1.1v4.027h1.373v-3.88c0-.712.484-1.247 1.219-1.247.758 0 1.14.398 1.14 1.202v3.925h1.406v-4.284c0-1.293-.752-2.074-2-2.074-.865 0-1.583.45-1.89 1.134h-.097c-.262-.7-.86-1.134-1.72-1.134-.827 0-1.465.422-1.732 1.134h-.097v-1.008h-1.362v6.232h1.413zm10.875.102c.814 0 1.498-.353 1.846-.957h.096v.855h1.362v-4.256c0-1.321-.9-2.102-2.5-2.102-1.482 0-2.513.7-2.627 1.8h1.333c.131-.421.575-.649 1.225-.649.763 0 1.173.342 1.173.951v.524l-1.606.097c-1.516.091-2.364.74-2.364 1.869 0 1.139.86 1.868 2.062 1.868zm.416-1.11c-.627 0-1.077-.314-1.077-.838 0-.507.37-.792 1.162-.843l1.407-.091v.495c0 .724-.638 1.276-1.492 1.276zm7.45 1.207c2.092 0 3.333-1.635 3.333-4.403 0-2.718-1.321-4.222-3.287-4.222-1.788 0-3.053 1.202-3.053 2.889 0 1.578 1.14 2.728 2.706 2.728.963 0 1.743-.444 2.13-1.225h.097c-.017 1.903-.706 3.003-1.908 3.003-.706 0-1.27-.382-1.447-.997h-1.464c.24 1.344 1.39 2.227 2.894 2.227zm.052-4.17c-.957 0-1.618-.66-1.618-1.612 0-.917.695-1.618 1.624-1.618.928 0 1.623.712 1.623 1.646 0 .918-.678 1.584-1.629 1.584zm8.095 3.97l2.205-6.231h-1.493l-1.43 4.819h-.097l-1.44-4.82H205.9l2.216 6.233h1.555zm6.067.126c1.578 0 2.558-.877 2.712-2.182h-1.345c-.148.65-.638.997-1.373.997-.962 0-1.544-.763-1.544-2.073 0-1.294.576-2.04 1.544-2.04.775 0 1.242.433 1.373 1.037h1.345c-.149-1.31-1.117-2.222-2.718-2.222-1.874 0-2.973 1.202-2.973 3.225 0 2.05 1.105 3.258 2.979 3.258zm5.474-.125v-3.789c0-.763.519-1.338 1.22-1.338.694 0 1.127.416 1.127 1.1v4.027h1.373v-3.88c0-.712.484-1.247 1.22-1.247.757 0 1.139.398 1.139 1.202v3.925h1.407v-4.284c0-1.293-.752-2.074-2-2.074-.866 0-1.583.45-1.891 1.134h-.097c-.262-.7-.86-1.134-1.72-1.134-.826 0-1.464.422-1.732 1.134h-.097v-1.008h-1.361v6.232h1.412zm12.607 0v-8.22h-1.464l-2.148 1.503v1.413l2.045-1.435h.097v6.739h1.47zm3.025 2.261c1.396 0 2.062-.512 2.592-2.062l2.25-6.431h-1.493l-1.452 4.864h-.097l-1.458-4.864h-1.55l2.228 6.26-.074.274c-.183.575-.519.803-1.117.803-.097 0-.308-.006-.387-.023v1.156c.09.018.472.023.558.023zm8.505-2.233c.273 0 .535-.028.74-.068v-1.105c-.17.017-.279.028-.478.028-.592 0-.855-.273-.855-.889v-3.059h1.333v-1.128h-1.333v-1.566h-1.407v1.566h-.985v1.128h.985v3.401c0 1.208.57 1.692 2 1.692zm4.41.074c.865 0 1.583-.404 1.936-1.088h.097v.986h1.367v-8.642h-1.413v3.4h-.097c-.33-.683-1.036-1.093-1.89-1.093-1.573 0-2.564 1.242-2.564 3.213 0 1.982.985 3.224 2.563 3.224zm.438-1.202c-.969 0-1.555-.757-1.555-2.016 0-1.254.592-2.017 1.555-2.017.968 0 1.566.775 1.566 2.017 0 1.253-.592 2.016-1.566 2.016zm7.61 1.299c2.091 0 3.333-1.635 3.333-4.403 0-2.718-1.322-4.222-3.287-4.222-1.789 0-3.053 1.202-3.053 2.889 0 1.578 1.139 2.728 2.706 2.728.962 0 1.743-.444 2.13-1.225h.097c-.017 1.903-.706 3.003-1.908 3.003-.707 0-1.27-.382-1.447-.997h-1.464c.239 1.344 1.39 2.227 2.893 2.227zm.052-4.17c-.957 0-1.618-.66-1.618-1.612 0-.917.695-1.618 1.623-1.618.929 0 1.624.712 1.624 1.646 0 .918-.678 1.584-1.63 1.584zm6.334 3.97v-2.17l.502-.501 2 2.672h1.708l-2.654-3.56 2.483-2.672h-1.64l-2.302 2.54h-.097v-4.95h-1.412v8.642h1.412zm6.352.012l1.27-2.148h.097l1.276 2.148h1.595l-2.033-3.15 2.01-3.082h-1.555l-1.23 2.142h-.097l-1.236-2.142h-1.64l2.033 3.139-2.017 3.093h1.527zm7.93.017c.273 0 .535-.028.74-.068v-1.105c-.17.017-.279.028-.478.028-.593 0-.855-.273-.855-.889v-3.059h1.333v-1.128h-1.333v-1.566h-1.407v1.566h-.985v1.128h.985v3.401c0 1.208.57 1.692 2 1.692zm3.868.074c.814 0 1.498-.353 1.845-.957h.097v.855h1.362v-4.256c0-1.321-.9-2.102-2.501-2.102-1.481 0-2.512.7-2.626 1.8h1.333c.13-.421.575-.649 1.225-.649.763 0 1.173.342 1.173.951v.524l-1.606.097c-1.516.091-2.364.74-2.364 1.869 0 1.139.86 1.868 2.062 1.868zm.416-1.11c-.627 0-1.077-.314-1.077-.838 0-.507.37-.792 1.162-.843l1.407-.091v.495c0 .724-.638 1.276-1.492 1.276zm6.448 1.008v-5.065h1.339v-1.128h-1.356v-.564c0-.586.262-.877.929-.877.199 0 .37.012.484.029v-1.037a4.515 4.515 0 00-.786-.063c-1.385 0-2.017.615-2.017 1.857v.655h-1.02v1.128h1.02v5.065h1.407zm5.355 0l1.208-4.49h.097l1.213 4.49h1.487l1.686-6.232h-1.407l-1.031 4.654h-.097l-1.208-4.654h-1.35l-1.196 4.654h-.097l-1.037-4.654h-1.424l1.686 6.232h1.47zm12.134 0V212.6h1.11v-1.242h-1.11v-5.412h-2.074a107.219 107.219 0 00-3.35 5.43v1.224h4.017v1.567h1.407zm-1.385-2.775h-2.677v-.08a88.885 88.885 0 012.598-4.17h.08v4.25zm6.358 2.9c1.555 0 2.655-.798 2.655-1.994 0-.917-.553-1.43-1.744-1.697l-1.1-.251c-.626-.142-.922-.359-.922-.712 0-.45.484-.758 1.128-.758.66 0 1.077.28 1.18.718h1.327c-.103-1.134-1.032-1.789-2.513-1.789-1.47 0-2.495.78-2.495 1.909 0 .94.564 1.492 1.76 1.766l1.106.256c.592.13.86.353.86.706 0 .462-.496.775-1.208.775-.706 0-1.145-.273-1.282-.735h-1.395c.108 1.134 1.088 1.806 2.643 1.806zm9.787-.125v-1.248h-3.714v-.097l1.765-1.72c1.413-1.367 1.83-2.04 1.83-2.997 0-1.367-1.112-2.364-2.747-2.364-1.714 0-2.922 1.088-2.922 2.65h1.379c0-.855.57-1.442 1.464-1.442.86 0 1.372.564 1.372 1.299 0 .615-.25 1.008-1.287 2.045l-2.848 2.854v1.02h5.708zm4.295 0l1.208-4.49h.096l1.214 4.49h1.487l1.686-6.232h-1.407l-1.031 4.654h-.097l-1.208-4.654h-1.35l-1.196 4.654h-.097l-1.037-4.654h-1.424l1.686 6.232h1.47zm8.334 0v-3.6c0-.872.638-1.442 1.555-1.442.24 0 .616.04.724.08v-1.31a2.427 2.427 0 00-.587-.063c-.803 0-1.475.456-1.646 1.071h-.097v-.968h-1.362v6.232h1.413zm6.3.199c2.091 0 3.333-1.635 3.333-4.403 0-2.718-1.322-4.222-3.287-4.222-1.789 0-3.053 1.202-3.053 2.889 0 1.578 1.14 2.728 2.706 2.728.962 0 1.743-.444 2.13-1.225h.097c-.017 1.903-.706 3.003-1.908 3.003-.707 0-1.27-.382-1.447-.997h-1.464c.239 1.344 1.39 2.227 2.894 2.227zm.052-4.17c-.957 0-1.618-.66-1.618-1.612 0-.917.695-1.618 1.624-1.618.928 0 1.623.712 1.623 1.646 0 .918-.678 1.584-1.63 1.584zm6.277 3.97v-3.628c0-.917.53-1.498 1.373-1.498.86 0 1.26.478 1.26 1.43v3.697h1.412v-4.034c0-1.486-.758-2.324-2.148-2.324-.928 0-1.555.427-1.85 1.122h-.098v-.996h-1.361v6.232h1.412zm11.377 2.074v-8.305h-1.373v1.03h-.097c-.342-.694-1.082-1.133-1.926-1.133-1.572 0-2.569 1.248-2.569 3.213 0 1.982.974 3.224 2.547 3.224.883 0 1.538-.381 1.897-1.048h.096v3.02h1.425zm-2.974-3.173c-.968 0-1.544-.752-1.544-2.016 0-1.26.581-2.017 1.55-2.017.962 0 1.572.775 1.572 2.017 0 1.247-.604 2.016-1.578 2.016zm5.754 1.111l1.27-2.148h.097l1.276 2.148h1.595l-2.034-3.15 2.011-3.082h-1.555l-1.23 2.142h-.097l-1.237-2.142h-1.64l2.033 3.139-2.016 3.093h1.527zm7.582.114c.951 0 1.56-.404 1.863-1.117h.096v.992h1.362v-6.232h-1.413v3.628c0 .923-.501 1.487-1.418 1.487-.843 0-1.236-.467-1.236-1.418v-3.697h-1.413v4.05c0 1.458.797 2.307 2.159 2.307zm7.685 0c1.47 0 2.512-.706 2.768-1.84h-1.339c-.205.461-.689.718-1.39.718-.928 0-1.526-.65-1.56-1.686v-.074h4.352v-.456c0-1.966-1.066-3.145-2.843-3.145-1.806 0-2.928 1.26-2.928 3.264 0 2.006 1.105 3.219 2.94 3.219zm1.418-3.845h-2.934c.063-.912.655-1.516 1.498-1.516.85 0 1.407.593 1.436 1.516zm4.244 3.72v-3.789c0-.763.518-1.338 1.219-1.338.695 0 1.128.416 1.128 1.1v4.027h1.373v-3.88c0-.712.484-1.247 1.219-1.247.758 0 1.14.398 1.14 1.202v3.925h1.406v-4.284c0-1.293-.752-2.074-2-2.074-.865 0-1.583.45-1.89 1.134h-.097c-.262-.7-.86-1.134-1.72-1.134-.827 0-1.465.422-1.732 1.134h-.097v-1.008h-1.362v6.232h1.413zm12.11.205c1.778 0 3.1-1.026 3.1-2.444 0-1.117-.7-1.84-1.817-2.011v-.097c.871-.228 1.492-.889 1.498-1.88.006-1.185-.98-2.199-2.729-2.199-1.783 0-2.9 1.009-2.973 2.461h1.378c.063-.809.621-1.264 1.515-1.264.872 0 1.39.53 1.39 1.202 0 .735-.58 1.247-1.424 1.247h-1.002v1.122h1.03c1.015 0 1.63.502 1.63 1.31 0 .787-.667 1.317-1.612 1.317-.951 0-1.595-.485-1.658-1.242h-1.407c.068 1.498 1.293 2.478 3.082 2.478zm7.737 0c1.897 0 3.196-.98 3.196-2.41 0-1.06-.707-1.891-1.778-2.09v-.097c.883-.223 1.442-.923 1.442-1.806 0-1.3-1.185-2.228-2.854-2.228-1.67 0-2.86.929-2.86 2.228 0 .877.57 1.59 1.447 1.806v.096c-1.077.228-1.777 1.054-1.777 2.097 0 1.424 1.298 2.404 3.184 2.404zm.006-5.042c-.838 0-1.413-.495-1.413-1.219 0-.735.57-1.242 1.413-1.242.837 0 1.407.507 1.407 1.242 0 .724-.576 1.22-1.407 1.22zm0 3.897c-.992 0-1.675-.564-1.675-1.385 0-.82.683-1.384 1.675-1.384.985 0 1.669.564 1.669 1.384s-.678 1.385-1.67 1.385zm6.266.94v-8.642h-1.413v8.642h1.413zm4.648.199c2.091 0 3.333-1.635 3.333-4.403 0-2.718-1.322-4.222-3.287-4.222-1.789 0-3.053 1.202-3.053 2.889 0 1.578 1.139 2.728 2.705 2.728.963 0 1.744-.444 2.131-1.225h.097c-.017 1.903-.707 3.003-1.909 3.003-.706 0-1.27-.382-1.446-.997h-1.465c.24 1.344 1.39 2.227 2.894 2.227zm.052-4.17c-.957 0-1.618-.66-1.618-1.612 0-.917.695-1.618 1.623-1.618.929 0 1.624.712 1.624 1.646 0 .918-.678 1.584-1.63 1.584zm6.727 3.97v-5.064h1.339v-1.128h-1.356v-.564c0-.586.262-.877.929-.877.2 0 .37.012.484.029v-1.037a4.515 4.515 0 00-.786-.063c-1.384 0-2.017.615-2.017 1.857v.655h-1.02v1.128h1.02v5.065h1.407zm7.605 0v-1.139h-3.241v-.096l3.19-4.034v-.962h-4.967v1.139h3.28v.097l-3.309 4.113v.883h5.047zm4.729.2c1.788 0 3.053-1.196 3.053-2.888 0-1.578-1.145-2.729-2.706-2.729-.968 0-1.743.45-2.13 1.225h-.097c.011-1.943.723-3.002 1.942-3.002.73 0 1.265.37 1.407 1.002h1.47c-.205-1.333-1.327-2.233-2.905-2.233-2.04 0-3.321 1.641-3.321 4.404 0 2.82 1.384 4.221 3.287 4.221zm-.012-1.225c-.928 0-1.623-.712-1.623-1.652 0-.923.672-1.595 1.629-1.595s1.618.672 1.618 1.624c0 .917-.701 1.623-1.624 1.623z"/><path fill="#A5A5A5" fill-rule="nonzero" d="M34.932 240.833v-5.594h.097l4.033 5.594h1.27v-8.22H38.92v5.588h-.097l-4.033-5.588h-1.276v8.22h1.418zm9.918.126c1.47 0 2.512-.707 2.769-1.84H46.28c-.205.461-.69.717-1.39.717-.928 0-1.527-.649-1.56-1.686v-.074h4.351v-.456c0-1.965-1.065-3.144-2.842-3.144-1.806 0-2.928 1.259-2.928 3.264s1.105 3.219 2.94 3.219zm1.419-3.846h-2.934c.063-.911.655-1.515 1.498-1.515.849 0 1.407.593 1.436 1.515zm5.28 3.749c.274 0 .536-.029.741-.069v-1.105c-.17.017-.28.029-.478.029-.593 0-.855-.274-.855-.889v-3.059h1.333v-1.128h-1.333v-1.566H49.55v1.566h-.986v1.128h.986v3.4c0 1.209.57 1.693 2 1.693zm4.808-.029l1.208-4.489h.097l1.213 4.49h1.487l1.686-6.233h-1.407l-1.03 4.654h-.098l-1.207-4.654h-1.35l-1.197 4.654h-.097l-1.036-4.654H53.2l1.687 6.232h1.47zm9.61.126c1.863 0 2.997-1.22 2.997-3.242 0-2.016-1.14-3.241-2.996-3.241-1.852 0-2.997 1.23-2.997 3.241 0 2.023 1.128 3.242 2.997 3.242zm0-1.185c-.985 0-1.549-.752-1.549-2.057 0-1.299.564-2.056 1.55-2.056.98 0 1.543.757 1.543 2.056 0 1.305-.558 2.057-1.543 2.057zm5.834 1.06v-3.6c0-.873.638-1.442 1.555-1.442.24 0 .615.04.724.08v-1.31a2.427 2.427 0 00-.587-.063c-.803 0-1.476.455-1.646 1.07h-.097v-.968h-1.362v6.232h1.413zm4.905 0v-2.171l.501-.501 2 2.671h1.709l-2.655-3.56 2.484-2.672h-1.641l-2.301 2.54h-.097v-4.95h-1.413v8.642h1.413zm10.27 0v-5.065h1.34v-1.128H86.96v-.564c0-.587.262-.877.928-.877.2 0 .37.011.484.028v-1.036a4.507 4.507 0 00-.786-.063c-1.384 0-2.016.615-2.016 1.857v.655h-1.02v1.128h1.02v5.064h1.407zm5.333.125c1.47 0 2.512-.707 2.768-1.84H93.74c-.205.461-.69.717-1.39.717-.929 0-1.527-.649-1.561-1.686v-.074h4.352v-.456c0-1.965-1.065-3.144-2.843-3.144-1.805 0-2.928 1.259-2.928 3.264s1.105 3.219 2.94 3.219zm1.418-3.846h-2.934c.063-.911.656-1.515 1.499-1.515.848 0 1.407.593 1.435 1.515zm5.463 3.846c1.47 0 2.512-.707 2.769-1.84h-1.339c-.205.461-.69.717-1.39.717-.928 0-1.527-.649-1.56-1.686v-.074h4.351v-.456c0-1.965-1.065-3.144-2.842-3.144-1.806 0-2.928 1.259-2.928 3.264s1.105 3.219 2.94 3.219zm1.419-3.846h-2.934c.063-.911.655-1.515 1.498-1.515.849 0 1.407.593 1.436 1.515zm3.885-.319c.541 0 .911-.381.911-.894 0-.518-.37-.9-.911-.9-.536 0-.912.382-.912.9 0 .513.376.894.912.894zm0 4.159c.541 0 .911-.387.911-.9 0-.518-.37-.9-.911-.9-.536 0-.912.382-.912.9 0 .513.376.9.912.9z"/><path fill="#6B6B6B" fill-rule="nonzero" d="M142.213 241.038c1.965 0 3.133-1.595 3.133-4.312 0-2.729-1.185-4.318-3.133-4.318-1.954 0-3.14 1.59-3.14 4.307 0 2.728 1.169 4.323 3.14 4.323zm0-1.219c-1.043 0-1.652-1.065-1.652-3.104 0-2.023.62-3.082 1.652-3.082 1.03 0 1.646 1.054 1.646 3.082 0 2.04-.604 3.104-1.646 3.104zm5.793 1.134c.541 0 .912-.387.912-.9 0-.518-.37-.9-.912-.9-.535 0-.911.382-.911.9 0 .513.376.9.911.9zm5.8.085c1.965 0 3.132-1.595 3.132-4.312 0-2.729-1.184-4.318-3.133-4.318-1.954 0-3.138 1.59-3.138 4.307 0 2.728 1.167 4.323 3.138 4.323zm0-1.219c-1.043 0-1.653-1.065-1.653-3.104 0-2.023.621-3.082 1.652-3.082s1.647 1.054 1.647 3.082c0 2.04-.604 3.104-1.647 3.104zm7.752 1.22c1.966 0 3.134-1.596 3.134-4.313 0-2.729-1.185-4.318-3.134-4.318-1.954 0-3.138 1.59-3.138 4.307 0 2.728 1.167 4.323 3.138 4.323zm0-1.22c-1.042 0-1.652-1.065-1.652-3.104 0-2.023.621-3.082 1.652-3.082 1.032 0 1.647 1.054 1.647 3.082 0 2.04-.604 3.104-1.647 3.104zm7.754 1.22c1.965 0 3.133-1.596 3.133-4.313 0-2.729-1.185-4.318-3.133-4.318-1.954 0-3.14 1.59-3.14 4.307 0 2.728 1.168 4.323 3.14 4.323zm0-1.22c-1.043 0-1.652-1.065-1.652-3.104 0-2.023.62-3.082 1.652-3.082 1.03 0 1.646 1.054 1.646 3.082 0 2.04-.604 3.104-1.646 3.104zm8.186 1.014v-8.22h-1.464l-2.148 1.504v1.413l2.045-1.436h.097v6.74h1.47zm5.32.205c1.795 0 2.997-1.179 2.997-2.905 0-1.652-1.14-2.706-2.547-2.706-.837 0-1.441.29-1.806.798h-.096l.227-2.376h3.783v-1.236h-4.928l-.45 4.785h1.333c.28-.53.82-.854 1.521-.854.906 0 1.544.65 1.544 1.618 0 .99-.638 1.652-1.583 1.652-.838 0-1.47-.496-1.561-1.26h-1.373c.062 1.448 1.242 2.484 2.94 2.484zm9.787-.205v-1.566h1.11v-1.242h-1.11v-5.412h-2.074a107.629 107.629 0 00-3.35 5.429v1.225h4.017v1.566h1.407zm-1.384-2.774h-2.678v-.08a89.2 89.2 0 012.598-4.17h.08v4.25zm6.967 2.98c1.777 0 3.099-1.026 3.099-2.444 0-1.117-.701-1.84-1.818-2.011v-.097c.872-.228 1.493-.889 1.499-1.88.005-1.185-.98-2.199-2.73-2.199-1.782 0-2.899 1.008-2.973 2.461h1.379c.063-.809.62-1.265 1.515-1.265.872 0 1.39.53 1.39 1.202 0 .735-.58 1.248-1.424 1.248h-1.003v1.122h1.031c1.014 0 1.63.501 1.63 1.31 0 .786-.667 1.316-1.612 1.316-.952 0-1.595-.484-1.658-1.242h-1.407c.068 1.499 1.293 2.478 3.082 2.478zm8.123-.206v-8.22h-1.464l-2.148 1.504v1.413l2.045-1.436h.097v6.74h1.47zm9.115 0c1.754 0 2.825-.894 2.825-2.335 0-1.071-.763-1.869-1.868-1.971v-.103c.826-.13 1.464-.894 1.464-1.76 0-1.265-.94-2.05-2.501-2.05h-3.435v8.22h3.515zm-.627-4.762h-1.418v-2.29h1.606c.889 0 1.407.421 1.407 1.145 0 .74-.553 1.145-1.595 1.145zm.29 3.595h-1.708v-2.535h1.652c1.122 0 1.714.432 1.714 1.253 0 .837-.575 1.282-1.657 1.282zm8.272 1.167v-6.95h2.535v-1.27h-6.534v1.27h2.53v6.95h1.469zm7.502.205c1.897 0 3.287-1.133 3.481-2.814h-1.447c-.2.923-.991 1.504-2.034 1.504-1.4 0-2.273-1.15-2.273-3.008 0-1.851.872-3.002 2.268-3.002 1.037 0 1.828.638 2.033 1.624h1.447c-.17-1.715-1.612-2.934-3.48-2.934-2.33 0-3.771 1.646-3.771 4.318 0 2.66 1.447 4.312 3.776 4.312z"/><path fill="#A5A5A5" fill-rule="nonzero" d="M37.029 267.5v-6.95h2.535v-1.27H33.03v1.27h2.53v6.95h1.469zm4.608 2.262c1.396 0 2.063-.513 2.592-2.063l2.25-6.431h-1.492l-1.453 4.865h-.096l-1.459-4.865h-1.55l2.228 6.26-.074.274c-.182.575-.518.803-1.117.803-.096 0-.307-.006-.387-.023v1.157c.091.017.473.023.558.023zm7.469-.188v-3.02h.096c.32.661 1.009 1.049 1.903 1.049 1.572 0 2.552-1.23 2.552-3.219 0-2-.991-3.219-2.569-3.219-.854 0-1.578.428-1.937 1.134h-.097v-1.031h-1.361v8.306h1.413zm1.538-3.173c-.963 0-1.561-.77-1.567-2.017.006-1.242.61-2.017 1.572-2.017.969 0 1.556.758 1.556 2.017s-.581 2.017-1.561 2.017zm7.064 1.224c1.47 0 2.512-.706 2.768-1.84h-1.339c-.205.462-.689.718-1.39.718-.928 0-1.526-.65-1.56-1.686v-.074h4.352v-.456c0-1.965-1.066-3.144-2.843-3.144-1.806 0-2.928 1.259-2.928 3.264s1.105 3.218 2.94 3.218zm1.418-3.845h-2.934c.063-.911.655-1.515 1.498-1.515.85 0 1.407.592 1.436 1.515zm3.885-.319c.541 0 .912-.382.912-.894 0-.519-.37-.9-.912-.9-.535 0-.911.381-.911.9 0 .512.376.894.911.894zm0 4.159c.541 0 .912-.388.912-.9 0-.519-.37-.9-.912-.9-.535 0-.911.381-.911.9 0 .512.376.9.911.9z"/><path fill="#6B6B6B" fill-rule="nonzero" d="M142.777 267.705c1.897 0 3.287-1.134 3.48-2.814h-1.447c-.199.923-.99 1.504-2.033 1.504-1.402 0-2.273-1.15-2.273-3.008 0-1.851.871-3.002 2.267-3.002 1.037 0 1.829.638 2.034 1.623h1.447c-.171-1.714-1.613-2.933-3.481-2.933-2.33 0-3.771 1.646-3.771 4.318 0 2.66 1.447 4.312 3.777 4.312zm6.676-.102c.815 0 1.498-.354 1.846-.957h.097v.854h1.361v-4.255c0-1.322-.9-2.102-2.5-2.102-1.482 0-2.513.7-2.627 1.8h1.333c.131-.422.576-.65 1.225-.65.763 0 1.173.342 1.173.952v.524l-1.606.097c-1.515.09-2.364.74-2.364 1.868 0 1.14.86 1.869 2.062 1.869zm.416-1.111c-.627 0-1.077-.314-1.077-.838 0-.507.37-.792 1.162-.843l1.407-.09v.495c0 .723-.638 1.276-1.492 1.276zm6.927 1.133c1.555 0 2.655-.797 2.655-1.993 0-.918-.553-1.43-1.743-1.698l-1.1-.25c-.627-.143-.923-.36-.923-.713 0-.45.484-.757 1.128-.757.661 0 1.077.279 1.18.717h1.327c-.103-1.133-1.031-1.788-2.513-1.788-1.47 0-2.495.78-2.495 1.908 0 .94.564 1.492 1.76 1.766l1.106.256c.592.131.86.353.86.707 0 .461-.496.774-1.208.774-.706 0-1.145-.273-1.281-.735h-1.396c.108 1.134 1.088 1.806 2.643 1.806zm5.554-.125v-3.617c0-.895.519-1.499 1.447-1.499.82 0 1.253.485 1.253 1.43v3.686h1.413v-4.022c0-1.48-.809-2.324-2.142-2.324-.928 0-1.595.422-1.891 1.122h-.103v-3.418h-1.39v8.642h1.413zm9.593-2.649v-1.327h-3.742v1.327h3.742zm2.513-4.614c.467 0 .843-.376.843-.849s-.376-.854-.843-.854c-.462 0-.844.381-.844.854s.382.849.844.849zm.706 7.263v-6.232h-1.407v6.232h1.407zm3.162 0v-3.629c0-.917.53-1.498 1.372-1.498.86 0 1.26.479 1.26 1.43v3.697h1.412v-4.033c0-1.487-.757-2.324-2.147-2.324-.929 0-1.556.427-1.852 1.122h-.097v-.997h-1.361v6.232h1.413z"/><path fill="#A5A5A5" fill-rule="nonzero" d="M36.943 294.372c1.897 0 3.287-1.134 3.481-2.814h-1.447c-.2.922-.991 1.504-2.034 1.504-1.401 0-2.273-1.151-2.273-3.008 0-1.852.872-3.002 2.268-3.002 1.036 0 1.828.638 2.033 1.623h1.447c-.17-1.715-1.612-2.934-3.48-2.934-2.33 0-3.771 1.647-3.771 4.318 0 2.66 1.446 4.313 3.776 4.313zm6.375-.205v-3.6c0-.872.638-1.442 1.555-1.442.24 0 .615.04.724.08v-1.31a2.433 2.433 0 00-.587-.063c-.803 0-1.476.456-1.647 1.071h-.096v-.968h-1.362v6.232h1.413zm6.067.125c1.47 0 2.512-.706 2.768-1.84h-1.338c-.205.461-.69.718-1.39.718-.929 0-1.527-.65-1.561-1.686v-.074h4.352v-.456c0-1.966-1.065-3.145-2.843-3.145-1.805 0-2.928 1.26-2.928 3.264 0 2.006 1.105 3.219 2.94 3.219zm1.418-3.845H47.87c.063-.912.656-1.516 1.499-1.516.848 0 1.407.593 1.435 1.516zm4.546 3.822c.815 0 1.498-.353 1.846-.957h.097v.855h1.361v-4.256c0-1.321-.9-2.102-2.5-2.102-1.482 0-2.513.7-2.627 1.8h1.333c.131-.421.576-.649 1.225-.649.763 0 1.173.342 1.173.951v.524l-1.606.097c-1.515.091-2.364.74-2.364 1.869 0 1.139.86 1.868 2.062 1.868zm.416-1.11c-.627 0-1.077-.314-1.077-.838 0-.507.37-.792 1.162-.843l1.407-.091v.495c0 .724-.638 1.276-1.492 1.276zm7.035 1.036c.274 0 .536-.028.74-.068v-1.105c-.17.017-.278.028-.478.028-.592 0-.854-.273-.854-.889v-3.059h1.333v-1.128h-1.333v-1.566H60.8v1.566h-.986v1.128h.986v3.401c0 1.208.57 1.692 2 1.692zm4.785.097c1.47 0 2.513-.706 2.769-1.84h-1.339c-.205.461-.689.718-1.39.718-.928 0-1.526-.65-1.56-1.686v-.074h4.352v-.456c0-1.966-1.066-3.145-2.843-3.145-1.806 0-2.928 1.26-2.928 3.264 0 2.006 1.105 3.219 2.94 3.219zm1.419-3.845H66.07c.063-.912.655-1.516 1.498-1.516.85 0 1.407.593 1.436 1.516zm5.087 3.822c.866 0 1.584-.404 1.937-1.088h.097v.986h1.367v-8.642h-1.413v3.4h-.097c-.33-.683-1.037-1.093-1.891-1.093-1.572 0-2.563 1.242-2.563 3.213 0 1.982.985 3.224 2.563 3.224zm.439-1.202c-.969 0-1.556-.757-1.556-2.016 0-1.254.593-2.017 1.556-2.017.968 0 1.566.775 1.566 2.017 0 1.253-.592 2.016-1.566 2.016zm9.57 1.202c.815 0 1.498-.353 1.846-.957h.096v.855h1.362v-4.256c0-1.321-.9-2.102-2.5-2.102-1.482 0-2.513.7-2.627 1.8h1.333c.131-.421.575-.649 1.225-.649.763 0 1.173.342 1.173.951v.524l-1.606.097c-1.515.091-2.364.74-2.364 1.869 0 1.139.86 1.868 2.062 1.868zm.416-1.11c-.627 0-1.077-.314-1.077-.838 0-.507.37-.792 1.162-.843l1.407-.091v.495c0 .724-.638 1.276-1.492 1.276zm7.035 1.036c.274 0 .536-.028.74-.068v-1.105c-.17.017-.278.028-.478.028-.592 0-.854-.273-.854-.889v-3.059h1.333v-1.128h-1.333v-1.566h-1.407v1.566h-.986v1.128h.986v3.401c0 1.208.57 1.692 2 1.692zm3.207-4.067c.541 0 .912-.382.912-.895 0-.518-.37-.9-.912-.9-.535 0-.911.382-.911.9 0 .513.376.895.911.895zm0 4.158c.541 0 .912-.387.912-.9 0-.518-.37-.9-.912-.9-.535 0-.911.382-.911.9 0 .513.376.9.911.9z"/><path fill="#6B6B6B" fill-rule="nonzero" d="M144.902 294.167v-1.248h-3.715v-.097l1.766-1.72c1.413-1.367 1.829-2.04 1.829-2.997 0-1.367-1.11-2.364-2.746-2.364-1.715 0-2.922 1.088-2.922 2.65h1.378c0-.855.57-1.442 1.464-1.442.86 0 1.373.564 1.373 1.299 0 .615-.25 1.008-1.287 2.045l-2.848 2.854v1.02h5.708zm5.087 0v-8.22h-1.464l-2.148 1.503v1.413l2.045-1.435h.097v6.739h1.47zm3.395.12c.541 0 .911-.388.911-.9 0-.52-.37-.9-.911-.9-.536 0-.912.38-.912.9 0 .512.376.9.912.9zm5.799.085c1.965 0 3.133-1.595 3.133-4.313 0-2.728-1.185-4.318-3.133-4.318-1.954 0-3.139 1.59-3.139 4.307 0 2.729 1.168 4.324 3.139 4.324zm0-1.22c-1.043 0-1.652-1.065-1.652-3.104 0-2.022.62-3.082 1.652-3.082 1.031 0 1.646 1.054 1.646 3.082 0 2.04-.604 3.105-1.646 3.105zm7.69 1.22c1.778 0 3.1-1.026 3.1-2.444 0-1.117-.701-1.84-1.818-2.011v-.097c.872-.228 1.493-.889 1.498-1.88.006-1.185-.98-2.199-2.728-2.199-1.783 0-2.9 1.009-2.974 2.461h1.379c.062-.809.62-1.264 1.515-1.264.871 0 1.39.53 1.39 1.202 0 .735-.581 1.247-1.424 1.247h-1.003v1.122h1.031c1.014 0 1.63.502 1.63 1.31 0 .787-.667 1.317-1.613 1.317-.951 0-1.595-.485-1.657-1.242h-1.407c.068 1.498 1.293 2.478 3.081 2.478zm5.731-.086c.541 0 .912-.387.912-.9 0-.518-.37-.9-.912-.9-.535 0-.911.382-.911.9 0 .513.376.9.911.9zm8.488-.12v-1.247h-3.714v-.097l1.766-1.72c1.413-1.367 1.828-2.04 1.828-2.997 0-1.367-1.11-2.364-2.745-2.364-1.715 0-2.923 1.088-2.923 2.65h1.379c0-.855.57-1.442 1.464-1.442.86 0 1.373.564 1.373 1.299 0 .615-.25 1.008-1.288 2.045l-2.848 2.854v1.02h5.708zm4.654.206c1.966 0 3.133-1.595 3.133-4.313 0-2.728-1.185-4.318-3.133-4.318-1.954 0-3.139 1.59-3.139 4.307 0 2.729 1.168 4.324 3.14 4.324zm0-1.22c-1.042 0-1.652-1.065-1.652-3.104 0-2.022.621-3.082 1.652-3.082s1.647 1.054 1.647 3.082c0 2.04-.604 3.105-1.647 3.105zm8.186 1.015v-8.22h-1.464l-2.147 1.503v1.413l2.045-1.435h.097v6.739h1.47zm5.207.199c2.09 0 3.333-1.635 3.333-4.403 0-2.718-1.322-4.222-3.287-4.222-1.79 0-3.054 1.202-3.054 2.889 0 1.578 1.14 2.728 2.706 2.728.963 0 1.743-.444 2.13-1.225h.097c-.017 1.903-.706 3.003-1.908 3.003-.706 0-1.27-.382-1.447-.997h-1.464c.24 1.344 1.39 2.227 2.894 2.227zm.051-4.17c-.957 0-1.618-.66-1.618-1.612 0-.917.695-1.618 1.624-1.618.929 0 1.623.712 1.623 1.646 0 .918-.677 1.584-1.629 1.584zm11.422 3.97v-8.22h-1.464L207 287.45v1.413l2.045-1.435h.097v6.739h1.47zm5.32.206c1.795 0 2.997-1.18 2.997-2.906 0-1.652-1.14-2.705-2.546-2.705-.838 0-1.442.29-1.806.797h-.097l.228-2.375h3.782v-1.237h-4.927l-.45 4.786h1.333c.279-.53.82-.855 1.52-.855.907 0 1.545.65 1.545 1.618 0 .991-.638 1.652-1.584 1.652-.837 0-1.47-.496-1.561-1.259h-1.373c.063 1.447 1.242 2.484 2.94 2.484zm5.629-5.497c.541 0 .911-.382.911-.895 0-.518-.37-.9-.911-.9-.536 0-.912.382-.912.9 0 .513.376.895.912.895zm0 4.158c.541 0 .911-.387.911-.9 0-.518-.37-.9-.911-.9-.536 0-.912.382-.912.9 0 .513.376.9.912.9zm7.998 1.134V292.6h1.11v-1.242h-1.11v-5.412h-2.074a107.219 107.219 0 00-3.35 5.43v1.224h4.017v1.567h1.407zm-1.384-2.775h-2.678v-.08a88.885 88.885 0 012.598-4.17h.08v4.25zm9.718 2.775v-1.248h-3.714v-.097l1.766-1.72c1.413-1.367 1.828-2.04 1.828-2.997 0-1.367-1.11-2.364-2.745-2.364-1.715 0-2.923 1.088-2.923 2.65h1.379c0-.855.57-1.442 1.464-1.442.86 0 1.373.564 1.373 1.299 0 .615-.25 1.008-1.288 2.045l-2.848 2.854v1.02h5.708zm2.695-5.292c.54 0 .911-.382.911-.895 0-.518-.37-.9-.911-.9-.536 0-.912.382-.912.9 0 .513.376.895.912.895zm0 4.158c.54 0 .911-.387.911-.9 0-.518-.37-.9-.911-.9-.536 0-.912.382-.912.9 0 .513.376.9.912.9zm5.799 1.339c1.965 0 3.133-1.595 3.133-4.313 0-2.728-1.185-4.318-3.133-4.318-1.954 0-3.14 1.59-3.14 4.307 0 2.729 1.169 4.324 3.14 4.324zm0-1.22c-1.043 0-1.652-1.065-1.652-3.104 0-2.022.62-3.082 1.652-3.082 1.03 0 1.646 1.054 1.646 3.082 0 2.04-.604 3.105-1.646 3.105zm8.186 1.015v-8.22h-1.464l-2.148 1.503v1.413l2.045-1.435h.097v6.739h1.47z"/><path fill="#A5A5A5" fill-rule="nonzero" d="M36.943 321.038c1.897 0 3.287-1.133 3.481-2.814h-1.447c-.2.923-.991 1.504-2.034 1.504-1.401 0-2.273-1.15-2.273-3.008 0-1.851.872-3.002 2.268-3.002 1.036 0 1.828.638 2.033 1.624h1.447c-.17-1.715-1.612-2.934-3.48-2.934-2.33 0-3.771 1.646-3.771 4.318 0 2.66 1.446 4.312 3.776 4.312zm7.65-.08c1.864 0 2.997-1.218 2.997-3.24 0-2.017-1.139-3.242-2.996-3.242-1.851 0-2.997 1.23-2.997 3.241 0 2.023 1.128 3.242 2.997 3.242zm0-1.184c-.985 0-1.549-.752-1.549-2.057 0-1.299.564-2.056 1.55-2.056.98 0 1.544.757 1.544 2.056 0 1.305-.559 2.057-1.544 2.057zm5.834 1.06v-3.789c0-.763.519-1.339 1.22-1.339.694 0 1.127.416 1.127 1.1v4.027h1.373v-3.88c0-.711.484-1.247 1.22-1.247.757 0 1.139.4 1.139 1.202v3.925h1.407v-4.284c0-1.293-.752-2.073-2-2.073-.866 0-1.584.45-1.891 1.134h-.097c-.262-.701-.86-1.134-1.72-1.134-.826 0-1.464.421-1.732 1.134h-.097v-1.01h-1.362v6.232h1.413zM61 322.906v-3.02h.097c.319.662 1.008 1.049 1.903 1.049 1.572 0 2.552-1.23 2.552-3.219 0-2-.991-3.218-2.57-3.218-.854 0-1.577.427-1.936 1.133h-.097v-1.03h-1.362v8.305H61zm1.538-3.173c-.962 0-1.56-.77-1.566-2.017.005-1.242.61-2.016 1.572-2.016.968 0 1.555.757 1.555 2.016 0 1.26-.58 2.017-1.56 2.017zm5.902 1.1v-8.642h-1.413v8.641h1.413zm4.415.125c1.47 0 2.512-.707 2.768-1.84h-1.338c-.205.461-.69.717-1.39.717-.929 0-1.527-.649-1.561-1.686v-.074h4.352v-.456c0-1.965-1.065-3.144-2.843-3.144-1.805 0-2.928 1.259-2.928 3.264s1.106 3.219 2.94 3.219zm1.418-3.846H71.34c.062-.911.655-1.515 1.498-1.515.849 0 1.407.593 1.435 1.515zm5.281 3.749c.273 0 .536-.029.74-.069v-1.105c-.17.017-.279.029-.478.029-.592 0-.854-.274-.854-.889v-3.059h1.333v-1.128h-1.333v-1.566h-1.407v1.566h-.986v1.128h.986v3.4c0 1.209.57 1.693 1.999 1.693zm4.785.097c1.47 0 2.512-.707 2.769-1.84h-1.339c-.205.461-.69.717-1.39.717-.928 0-1.527-.649-1.56-1.686v-.074h4.351v-.456c0-1.965-1.065-3.144-2.842-3.144-1.806 0-2.928 1.259-2.928 3.264s1.105 3.219 2.94 3.219zm1.419-3.846h-2.934c.063-.911.655-1.515 1.498-1.515.849 0 1.407.593 1.436 1.515zm5.087 3.823c.866 0 1.583-.405 1.937-1.088h.096v.985h1.368v-8.641h-1.413v3.4h-.097c-.33-.683-1.037-1.093-1.891-1.093-1.573 0-2.564 1.242-2.564 3.213 0 1.982.986 3.224 2.564 3.224zm.438-1.202c-.968 0-1.555-.758-1.555-2.017 0-1.253.593-2.016 1.555-2.016.969 0 1.567.774 1.567 2.016 0 1.254-.593 2.017-1.567 2.017zm9.57 1.202c.815 0 1.499-.353 1.846-.957h.097v.854h1.362v-4.255c0-1.322-.9-2.102-2.501-2.102-1.481 0-2.512.7-2.626 1.8h1.333c.13-.422.575-.65 1.225-.65.763 0 1.173.342 1.173.952v.524l-1.606.097c-1.516.091-2.364.74-2.364 1.868 0 1.14.86 1.869 2.062 1.869zm.417-1.111c-.627 0-1.077-.313-1.077-.837 0-.507.37-.792 1.162-.843l1.407-.092v.496c0 .723-.638 1.276-1.492 1.276zm7.035 1.037c.273 0 .535-.029.74-.069v-1.105c-.17.017-.279.029-.478.029-.593 0-.855-.274-.855-.889v-3.059h1.333v-1.128h-1.333v-1.566h-1.407v1.566h-.985v1.128h.985v3.4c0 1.209.57 1.693 2 1.693zm3.207-4.068c.541 0 .912-.381.912-.894 0-.518-.37-.9-.912-.9-.535 0-.911.382-.911.9 0 .513.376.894.911.894zm0 4.159c.541 0 .912-.387.912-.9 0-.518-.37-.9-.912-.9-.535 0-.911.382-.911.9 0 .513.376.9.911.9z"/><path fill="#6B6B6B" fill-rule="nonzero" d="M144.902 320.833v-1.247h-3.715v-.097l1.766-1.72c1.413-1.368 1.829-2.04 1.829-2.997 0-1.367-1.11-2.364-2.746-2.364-1.715 0-2.922 1.088-2.922 2.649h1.378c0-.855.57-1.441 1.464-1.441.86 0 1.373.564 1.373 1.299 0 .615-.25 1.008-1.287 2.045l-2.848 2.854v1.02h5.708zm5.087 0v-8.22h-1.464l-2.148 1.504v1.413l2.045-1.436h.097v6.74h1.47zm3.395.12c.541 0 .911-.387.911-.9 0-.518-.37-.9-.911-.9-.536 0-.912.382-.912.9 0 .513.376.9.912.9zm5.799.085c1.965 0 3.133-1.595 3.133-4.312 0-2.729-1.185-4.318-3.133-4.318-1.954 0-3.139 1.59-3.139 4.307 0 2.728 1.168 4.323 3.139 4.323zm0-1.219c-1.043 0-1.652-1.065-1.652-3.104 0-2.023.62-3.082 1.652-3.082 1.031 0 1.646 1.054 1.646 3.082 0 2.04-.604 3.104-1.646 3.104zm7.69 1.22c1.778 0 3.1-1.026 3.1-2.444 0-1.117-.701-1.84-1.818-2.011v-.097c.872-.228 1.493-.889 1.498-1.88.006-1.185-.98-2.199-2.728-2.199-1.783 0-2.9 1.008-2.974 2.461h1.379c.062-.809.62-1.265 1.515-1.265.871 0 1.39.53 1.39 1.202 0 .735-.581 1.248-1.424 1.248h-1.003v1.122h1.031c1.014 0 1.63.501 1.63 1.31 0 .786-.667 1.316-1.613 1.316-.951 0-1.595-.484-1.657-1.242h-1.407c.068 1.499 1.293 2.478 3.081 2.478zm5.731-.086c.541 0 .912-.387.912-.9 0-.518-.37-.9-.912-.9-.535 0-.911.382-.911.9 0 .513.376.9.911.9zm8.488-.12v-1.247h-3.714v-.097l1.766-1.72c1.413-1.368 1.828-2.04 1.828-2.997 0-1.367-1.11-2.364-2.745-2.364-1.715 0-2.923 1.088-2.923 2.649h1.379c0-.855.57-1.441 1.464-1.441.86 0 1.373.564 1.373 1.299 0 .615-.25 1.008-1.288 2.045l-2.848 2.854v1.02h5.708zm4.654.205c1.966 0 3.133-1.595 3.133-4.312 0-2.729-1.185-4.318-3.133-4.318-1.954 0-3.139 1.59-3.139 4.307 0 2.728 1.168 4.323 3.14 4.323zm0-1.219c-1.042 0-1.652-1.065-1.652-3.104 0-2.023.621-3.082 1.652-3.082s1.647 1.054 1.647 3.082c0 2.04-.604 3.104-1.647 3.104zm8.186 1.014v-8.22h-1.464l-2.147 1.504v1.413l2.045-1.436h.097v6.74h1.47zm5.207.2c2.09 0 3.333-1.635 3.333-4.404 0-2.717-1.322-4.221-3.287-4.221-1.79 0-3.054 1.202-3.054 2.888 0 1.578 1.14 2.729 2.706 2.729.963 0 1.743-.444 2.13-1.225h.097c-.017 1.903-.706 3.002-1.908 3.002-.706 0-1.27-.381-1.447-.997h-1.464c.24 1.345 1.39 2.228 2.894 2.228zm.051-4.17c-.957 0-1.618-.661-1.618-1.612 0-.918.695-1.618 1.624-1.618.929 0 1.623.712 1.623 1.646 0 .917-.677 1.584-1.629 1.584zm11.422 3.97v-8.22h-1.464L207 314.117v1.413l2.045-1.436h.097v6.74h1.47zm5.32.205c1.795 0 2.997-1.179 2.997-2.905 0-1.652-1.14-2.706-2.546-2.706-.838 0-1.442.29-1.806.798h-.097l.228-2.376h3.782v-1.236h-4.927l-.45 4.785h1.333c.279-.53.82-.854 1.52-.854.907 0 1.545.65 1.545 1.618 0 .99-.638 1.652-1.584 1.652-.837 0-1.47-.496-1.561-1.26h-1.373c.063 1.448 1.242 2.484 2.94 2.484zm5.629-5.497c.541 0 .911-.381.911-.894 0-.519-.37-.9-.911-.9-.536 0-.912.381-.912.9 0 .513.376.894.912.894zm0 4.159c.541 0 .911-.388.911-.9 0-.519-.37-.9-.911-.9-.536 0-.912.381-.912.9 0 .512.376.9.912.9zm5.765 1.338c1.794 0 2.996-1.179 2.996-2.905 0-1.652-1.14-2.706-2.546-2.706-.838 0-1.441.29-1.806.798h-.097l.228-2.376h3.783v-1.236h-4.928l-.45 4.785h1.333c.28-.53.82-.854 1.521-.854.906 0 1.544.65 1.544 1.618 0 .99-.638 1.652-1.584 1.652-.837 0-1.47-.496-1.56-1.26h-1.374c.063 1.448 1.242 2.484 2.94 2.484zm7.633 0c1.897 0 3.196-.98 3.196-2.41 0-1.059-.706-1.89-1.777-2.09v-.097c.883-.222 1.441-.923 1.441-1.806 0-1.298-1.185-2.227-2.854-2.227-1.67 0-2.86.929-2.86 2.227 0 .878.57 1.59 1.447 1.806v.097c-1.076.228-1.777 1.054-1.777 2.096 0 1.425 1.299 2.404 3.184 2.404zm.006-5.041c-.837 0-1.413-.496-1.413-1.22 0-.734.57-1.241 1.413-1.241.837 0 1.407.507 1.407 1.242 0 .723-.575 1.219-1.407 1.219zm0 3.896c-.991 0-1.675-.564-1.675-1.384s.684-1.384 1.675-1.384c.986 0 1.67.564 1.67 1.384s-.679 1.384-1.67 1.384zm5.85-4.352c.542 0 .912-.381.912-.894 0-.519-.37-.9-.912-.9-.535 0-.911.381-.911.9 0 .513.376.894.911.894zm0 4.159c.542 0 .912-.388.912-.9 0-.519-.37-.9-.912-.9-.535 0-.911.381-.911.9 0 .512.376.9.911.9zm7.998 1.133v-1.566h1.111v-1.242h-1.11v-5.412h-2.074a106.908 106.908 0 00-3.35 5.429v1.225h4.016v1.566h1.407zm-1.384-2.774h-2.677v-.08a88.361 88.361 0 012.597-4.17h.08v4.25zm6.967 2.98c1.778 0 3.1-1.026 3.1-2.444 0-1.117-.702-1.84-1.818-2.011v-.097c.871-.228 1.492-.889 1.498-1.88.006-1.185-.98-2.199-2.729-2.199-1.783 0-2.9 1.008-2.973 2.461h1.378c.063-.809.621-1.265 1.516-1.265.871 0 1.39.53 1.39 1.202 0 .735-.581 1.248-1.425 1.248h-1.002v1.122h1.031c1.014 0 1.63.501 1.63 1.31 0 .786-.667 1.316-1.613 1.316-.951 0-1.595-.484-1.658-1.242h-1.407c.069 1.499 1.293 2.478 3.082 2.478z"/><path fill="#A5A5A5" fill-rule="nonzero" d="M36.345 347.705c1.994 0 3.23-.997 3.23-2.598 0-1.253-.7-1.948-2.37-2.324l-.945-.216c-1.02-.234-1.436-.559-1.436-1.111 0-.7.627-1.157 1.572-1.157.9 0 1.539.456 1.641 1.18h1.407c-.068-1.413-1.316-2.404-3.042-2.404-1.84 0-3.059.99-3.059 2.483 0 1.225.7 1.966 2.193 2.302l1.066.245c1.053.245 1.503.592 1.503 1.185 0 .689-.7 1.185-1.669 1.185-1.042 0-1.771-.473-1.862-1.208h-1.436c.074 1.492 1.322 2.438 3.207 2.438zm6.836-.08c.951 0 1.561-.404 1.863-1.116h.097v.991h1.361v-6.232H45.09v3.629c0 .922-.502 1.486-1.419 1.486-.843 0-1.236-.467-1.236-1.418v-3.697h-1.413v4.05c0 1.459.798 2.307 2.16 2.307zm6.466-.125v-3.788c0-.764.518-1.339 1.219-1.339.695 0 1.128.416 1.128 1.1v4.027h1.373v-3.88c0-.711.484-1.247 1.219-1.247.757 0 1.14.399 1.14 1.202v3.925h1.406v-4.284c0-1.293-.752-2.073-2-2.073-.865 0-1.583.45-1.89 1.133h-.097c-.263-.7-.86-1.133-1.72-1.133-.827 0-1.465.421-1.733 1.133h-.096v-1.008h-1.362v6.232h1.413zm14.902.125c1.47 0 2.512-.706 2.769-1.84h-1.339c-.205.462-.69.718-1.39.718-.929 0-1.527-.65-1.56-1.686v-.074h4.351v-.456c0-1.965-1.065-3.144-2.842-3.144-1.806 0-2.928 1.259-2.928 3.264s1.105 3.218 2.94 3.218zm1.419-3.845h-2.934c.063-.911.655-1.515 1.498-1.515.849 0 1.407.592 1.436 1.515zm3.885 3.731l1.27-2.147h.097l1.276 2.147h1.595l-2.034-3.15 2.011-3.082h-1.555l-1.23 2.142h-.097l-1.236-2.142h-1.641l2.034 3.14-2.017 3.092h1.527zm6.893 2.063v-3.02h.096c.32.661 1.009 1.049 1.903 1.049 1.572 0 2.552-1.23 2.552-3.219 0-2-.991-3.219-2.569-3.219-.854 0-1.578.428-1.937 1.134h-.097v-1.031h-1.361v8.306h1.413zm1.538-3.173c-.963 0-1.561-.77-1.567-2.017.006-1.242.61-2.017 1.572-2.017.969 0 1.556.758 1.556 2.017s-.581 2.017-1.561 2.017zm7.063 1.224c1.47 0 2.513-.706 2.769-1.84h-1.339c-.205.462-.689.718-1.39.718-.928 0-1.526-.65-1.56-1.686v-.074h4.352v-.456c0-1.965-1.066-3.144-2.843-3.144-1.806 0-2.928 1.259-2.928 3.264s1.105 3.218 2.94 3.218zm1.419-3.845h-2.934c.063-.911.655-1.515 1.498-1.515.85 0 1.407.592 1.436 1.515zm5.503 3.845c1.578 0 2.558-.877 2.711-2.181h-1.344c-.148.649-.638.996-1.373.996-.963 0-1.544-.763-1.544-2.073 0-1.293.576-2.04 1.544-2.04.775 0 1.242.433 1.373 1.037h1.344c-.148-1.31-1.116-2.221-2.717-2.221-1.874 0-2.973 1.202-2.973 3.224 0 2.05 1.105 3.258 2.979 3.258zm6.511-.097c.274 0 .536-.028.74-.068v-1.105c-.17.017-.278.028-.478.028-.592 0-.854-.273-.854-.888v-3.06h1.333v-1.127h-1.333v-1.567H96.78v1.567h-.986v1.128h.986v3.4c0 1.208.57 1.692 2 1.692zm4.785.097c1.47 0 2.512-.706 2.769-1.84h-1.339c-.205.462-.69.718-1.39.718-.928 0-1.527-.65-1.56-1.686v-.074h4.351v-.456c0-1.965-1.065-3.144-2.842-3.144-1.806 0-2.928 1.259-2.928 3.264s1.105 3.218 2.94 3.218zm1.419-3.845h-2.934c.063-.911.655-1.515 1.498-1.515.849 0 1.407.592 1.436 1.515zm5.087 3.823c.866 0 1.583-.405 1.937-1.089h.096v.986h1.368v-8.642h-1.413v3.401h-.097c-.33-.683-1.037-1.094-1.891-1.094-1.572 0-2.564 1.242-2.564 3.213 0 1.983.986 3.225 2.564 3.225zm.438-1.202c-.968 0-1.555-.758-1.555-2.017 0-1.253.593-2.017 1.555-2.017.969 0 1.567.775 1.567 2.017 0 1.253-.592 2.017-1.567 2.017zm5.8-2.94c.54 0 .911-.382.911-.894 0-.519-.37-.9-.911-.9-.536 0-.912.381-.912.9 0 .512.376.894.912.894zm0 4.159c.54 0 .911-.388.911-.9 0-.519-.37-.9-.911-.9-.536 0-.912.381-.912.9 0 .512.376.9.912.9z"/><path fill="#2B2D31" fill-rule="nonzero" d="M144.902 347.5v-1.248h-3.715v-.096l1.766-1.72c1.413-1.368 1.829-2.04 1.829-2.997 0-1.367-1.11-2.364-2.746-2.364-1.715 0-2.922 1.088-2.922 2.649h1.378c0-.855.57-1.442 1.464-1.442.86 0 1.373.564 1.373 1.3 0 .614-.25 1.008-1.287 2.044l-2.848 2.854v1.02h5.708zm2.694.12c.541 0 .911-.388.911-.9 0-.519-.37-.9-.911-.9-.535 0-.911.381-.911.9 0 .512.376.9.911.9zm5.765.085c1.794 0 2.996-1.18 2.996-2.905 0-1.652-1.139-2.706-2.546-2.706-.837 0-1.441.29-1.806.797h-.097l.228-2.375h3.783v-1.236h-4.928l-.45 4.785h1.333c.28-.53.82-.855 1.521-.855.906 0 1.544.65 1.544 1.618 0 .991-.638 1.652-1.584 1.652-.837 0-1.47-.495-1.56-1.259h-1.373c.062 1.447 1.241 2.484 2.939 2.484zm6.466-.205l3.514-6.967v-1.253h-5.719v1.23h4.238v.091l-3.571 6.899h1.538zm8.465 0v-8.22h-1.464l-2.148 1.504v1.412l2.045-1.435h.097v6.739h1.47zm9.114 0c1.755 0 2.826-.894 2.826-2.336 0-1.07-.763-1.868-1.869-1.97v-.103c.826-.131 1.464-.895 1.464-1.76 0-1.265-.94-2.051-2.5-2.051h-3.435v8.22h3.514zm-.626-4.762h-1.419v-2.29h1.607c.888 0 1.407.421 1.407 1.145 0 .74-.553 1.145-1.595 1.145zm.29 3.594h-1.709v-2.535h1.652c1.123 0 1.715.433 1.715 1.253 0 .838-.575 1.282-1.658 1.282zm8.272 1.168v-6.95h2.535v-1.27h-6.534v1.27h2.53v6.95h1.469zm7.502.205c1.897 0 3.287-1.134 3.48-2.814h-1.446c-.2.923-.991 1.504-2.034 1.504-1.401 0-2.273-1.15-2.273-3.008 0-1.851.872-3.002 2.268-3.002 1.036 0 1.828.638 2.033 1.623h1.447c-.17-1.714-1.612-2.933-3.48-2.933-2.33 0-3.772 1.646-3.772 4.318 0 2.66 1.447 4.312 3.777 4.312z"/><path fill="#A5A5A5" fill-rule="nonzero" d="M230.735 347.5v-1.248h-3.714v-.096l1.766-1.72c1.412-1.368 1.828-2.04 1.828-2.997 0-1.367-1.11-2.364-2.746-2.364-1.714 0-2.922 1.088-2.922 2.649h1.379c0-.855.57-1.442 1.464-1.442.86 0 1.373.564 1.373 1.3 0 .614-.251 1.008-1.288 2.044l-2.848 2.854v1.02h5.708zm6.853 0v-1.567h1.11v-1.241h-1.11v-5.412h-2.074a107.182 107.182 0 00-3.35 5.429v1.224h4.017v1.567h1.407zm-1.384-2.774h-2.678v-.08a88.368 88.368 0 012.598-4.17h.08v4.25zm12.338 2.774v-1.567h1.111v-1.241h-1.11v-5.412h-2.074a106.467 106.467 0 00-3.35 5.429v1.224h4.016v1.567h1.407zm-1.384-2.774h-2.677v-.08a88.361 88.361 0 012.597-4.17h.08v4.25zm9.719 2.774v-1.248h-3.715v-.096l1.766-1.72c1.413-1.368 1.829-2.04 1.829-2.997 0-1.367-1.11-2.364-2.746-2.364-1.714 0-2.922 1.088-2.922 2.649h1.378c0-.855.57-1.442 1.464-1.442.86 0 1.373.564 1.373 1.3 0 .614-.25 1.008-1.287 2.044l-2.848 2.854v1.02h5.708zm6.853 0v-1.567h1.11v-1.241h-1.11v-5.412h-2.074a107.182 107.182 0 00-3.35 5.429v1.224h4.017v1.567h1.407zm-1.385-2.774h-2.677v-.08a88.368 88.368 0 012.598-4.17h.08v4.25zm5.07 2.894c.542 0 .912-.388.912-.9 0-.519-.37-.9-.912-.9-.535 0-.911.381-.911.9 0 .512.376.9.911.9zm5.765.085c1.795 0 2.997-1.18 2.997-2.905 0-1.652-1.14-2.706-2.547-2.706-.837 0-1.44.29-1.805.797h-.097l.228-2.375h3.782v-1.236h-4.927l-.45 4.785h1.333c.279-.53.82-.855 1.52-.855.906 0 1.544.65 1.544 1.618 0 .991-.638 1.652-1.583 1.652-.838 0-1.47-.495-1.561-1.259h-1.373c.063 1.447 1.242 2.484 2.94 2.484zm7.588 0c1.966 0 3.133-1.595 3.133-4.312 0-2.729-1.185-4.318-3.133-4.318-1.954 0-3.139 1.59-3.139 4.306 0 2.729 1.168 4.324 3.14 4.324zm0-1.219c-1.042 0-1.652-1.065-1.652-3.105 0-2.022.621-3.082 1.652-3.082s1.647 1.054 1.647 3.082c0 2.04-.604 3.105-1.647 3.105zm11.37 1.22c2.08 0 3.379-1.243 3.379-3.037v-5.39h-1.47v5.253c0 1.11-.69 1.857-1.908 1.857-1.22 0-1.909-.746-1.909-1.857v-5.252h-1.47v5.389c0 1.794 1.3 3.036 3.379 3.036zm8.232 0c1.994 0 3.23-.998 3.23-2.599 0-1.253-.7-1.948-2.37-2.324l-.945-.216c-1.02-.234-1.436-.559-1.436-1.111 0-.7.627-1.157 1.573-1.157.9 0 1.538.456 1.64 1.18h1.407c-.068-1.413-1.316-2.404-3.042-2.404-1.84 0-3.059.99-3.059 2.483 0 1.225.7 1.966 2.193 2.302l1.066.245c1.054.245 1.504.592 1.504 1.185 0 .689-.701 1.185-1.67 1.185-1.042 0-1.771-.473-1.862-1.208h-1.436c.074 1.492 1.322 2.438 3.207 2.438zm7.964-.206c2.461 0 3.868-1.51 3.868-4.147 0-2.58-1.424-4.073-3.868-4.073h-3.082v8.22h3.082zm-.194-1.27h-1.418v-5.68h1.418c1.613 0 2.564 1.031 2.564 2.826 0 1.834-.929 2.854-2.564 2.854zM36.345 374.372c1.994 0 3.23-.997 3.23-2.598 0-1.253-.7-1.948-2.37-2.324l-.945-.217c-1.02-.233-1.436-.558-1.436-1.11 0-.701.627-1.157 1.572-1.157.9 0 1.539.456 1.641 1.18h1.407c-.068-1.413-1.316-2.405-3.042-2.405-1.84 0-3.059.992-3.059 2.484 0 1.225.7 1.965 2.193 2.302l1.066.244c1.053.245 1.503.593 1.503 1.185 0 .69-.7 1.185-1.669 1.185-1.042 0-1.771-.473-1.862-1.207h-1.436c.074 1.492 1.322 2.438 3.207 2.438zm6.836-.08c.951 0 1.561-.404 1.863-1.117h.097v.992h1.361v-6.232H45.09v3.628c0 .923-.502 1.487-1.419 1.487-.843 0-1.236-.467-1.236-1.418v-3.697h-1.413v4.05c0 1.458.798 2.307 2.16 2.307zm6.466-.125v-3.789c0-.763.518-1.338 1.219-1.338.695 0 1.128.416 1.128 1.1v4.027h1.373v-3.88c0-.712.484-1.247 1.219-1.247.757 0 1.14.398 1.14 1.202v3.925h1.406v-4.284c0-1.293-.752-2.074-2-2.074-.865 0-1.583.45-1.89 1.134h-.097c-.263-.7-.86-1.134-1.72-1.134-.827 0-1.465.422-1.733 1.134h-.096v-1.008h-1.362v6.232h1.413zm13.985.102c.815 0 1.498-.353 1.846-.957h.097v.855h1.361v-4.256c0-1.321-.9-2.102-2.5-2.102-1.482 0-2.513.7-2.627 1.8h1.333c.131-.421.575-.649 1.225-.649.763 0 1.173.342 1.173.951v.524l-1.606.097c-1.515.091-2.364.74-2.364 1.869 0 1.139.86 1.868 2.062 1.868zm.416-1.11c-.627 0-1.077-.314-1.077-.838 0-.507.37-.792 1.162-.843l1.407-.091v.495c0 .724-.638 1.276-1.492 1.276zm7.257 1.133c1.578 0 2.558-.877 2.712-2.182h-1.344c-.149.65-.638.997-1.373.997-.963 0-1.544-.763-1.544-2.073 0-1.294.575-2.04 1.544-2.04.774 0 1.242.433 1.373 1.037h1.344c-.148-1.31-1.117-2.222-2.717-2.222-1.875 0-2.974 1.202-2.974 3.225 0 2.05 1.105 3.258 2.98 3.258zm6.512-.097c.273 0 .535-.028.74-.068v-1.105c-.17.017-.279.028-.478.028-.593 0-.855-.273-.855-.889v-3.059h1.333v-1.128h-1.333v-1.566h-1.407v1.566h-.985v1.128h.985v3.401c0 1.208.57 1.692 2 1.692zm4.255.097c.951 0 1.56-.404 1.863-1.117h.097v.992h1.361v-6.232H83.98v3.628c0 .923-.501 1.487-1.418 1.487-.843 0-1.236-.467-1.236-1.418v-3.697h-1.413v4.05c0 1.458.797 2.307 2.159 2.307zm6.768-.023c.814 0 1.498-.353 1.845-.957h.097v.855h1.362v-4.256c0-1.321-.9-2.102-2.501-2.102-1.481 0-2.512.7-2.626 1.8h1.333c.13-.421.575-.649 1.224-.649.764 0 1.174.342 1.174.951v.524l-1.607.097c-1.515.091-2.364.74-2.364 1.869 0 1.139.86 1.868 2.063 1.868zm.415-1.11c-.626 0-1.076-.314-1.076-.838 0-.507.37-.792 1.162-.843l1.407-.091v.495c0 .724-.638 1.276-1.493 1.276zm6.056 1.008v-8.642h-1.413v8.642h1.413zm2.837-4.04c.541 0 .911-.38.911-.894 0-.518-.37-.9-.911-.9-.536 0-.912.382-.912.9 0 .513.376.895.912.895zm0 4.16c.541 0 .911-.388.911-.9 0-.52-.37-.9-.911-.9-.536 0-.912.38-.912.9 0 .512.376.9.912.9z"/><path fill="#2B2D31" fill-rule="nonzero" d="M144.902 374.167v-1.248h-3.715v-.097l1.766-1.72c1.413-1.367 1.829-2.04 1.829-2.997 0-1.367-1.11-2.364-2.746-2.364-1.715 0-2.922 1.088-2.922 2.65h1.378c0-.855.57-1.442 1.464-1.442.86 0 1.373.564 1.373 1.299 0 .615-.25 1.008-1.287 2.045l-2.848 2.854v1.02h5.708zm2.694.12c.541 0 .911-.388.911-.9 0-.52-.37-.9-.911-.9-.535 0-.911.38-.911.9 0 .512.376.9.911.9zm5.765.085c1.794 0 2.996-1.18 2.996-2.906 0-1.652-1.139-2.705-2.546-2.705-.837 0-1.441.29-1.806.797h-.097l.228-2.375h3.783v-1.237h-4.928l-.45 4.786h1.333c.28-.53.82-.855 1.521-.855.906 0 1.544.65 1.544 1.618 0 .991-.638 1.652-1.584 1.652-.837 0-1.47-.496-1.56-1.259h-1.373c.062 1.447 1.241 2.484 2.939 2.484zm6.466-.205l3.514-6.967v-1.254h-5.719v1.23h4.238v.092l-3.571 6.899h1.538zm8.465 0v-8.22h-1.464l-2.148 1.503v1.413l2.045-1.435h.097v6.739h1.47zm9.114 0c1.755 0 2.826-.895 2.826-2.336 0-1.07-.763-1.868-1.869-1.971v-.103c.826-.13 1.464-.894 1.464-1.76 0-1.264-.94-2.05-2.5-2.05h-3.435v8.22h3.514zm-.626-4.763h-1.419v-2.29h1.607c.888 0 1.407.422 1.407 1.145 0 .74-.553 1.145-1.595 1.145zm.29 3.595h-1.709v-2.535h1.652c1.123 0 1.715.433 1.715 1.253 0 .838-.575 1.282-1.658 1.282zm8.272 1.168v-6.95h2.535v-1.27h-6.534v1.27h2.53v6.95h1.469zm7.502.205c1.897 0 3.287-1.134 3.48-2.814h-1.446c-.2.922-.991 1.504-2.034 1.504-1.401 0-2.273-1.151-2.273-3.008 0-1.852.872-3.002 2.268-3.002 1.036 0 1.828.638 2.033 1.623h1.447c-.17-1.715-1.612-2.934-3.48-2.934-2.33 0-3.772 1.647-3.772 4.318 0 2.66 1.447 4.313 3.777 4.313z"/><path fill="#A5A5A5" fill-rule="nonzero" d="M230.735 374.167v-1.248h-3.714v-.097l1.766-1.72c1.412-1.367 1.828-2.04 1.828-2.997 0-1.367-1.11-2.364-2.746-2.364-1.714 0-2.922 1.088-2.922 2.65h1.379c0-.855.57-1.442 1.464-1.442.86 0 1.373.564 1.373 1.299 0 .615-.251 1.008-1.288 2.045l-2.848 2.854v1.02h5.708zm6.853 0V372.6h1.11v-1.242h-1.11v-5.412h-2.074a107.219 107.219 0 00-3.35 5.43v1.224h4.017v1.567h1.407zm-1.384-2.775h-2.678v-.08a88.885 88.885 0 012.598-4.17h.08v4.25zm12.338 2.775V372.6h1.111v-1.242h-1.11v-5.412h-2.074a106.503 106.503 0 00-3.35 5.43v1.224h4.016v1.567h1.407zm-1.384-2.775h-2.677v-.08a88.877 88.877 0 012.597-4.17h.08v4.25zm9.719 2.775v-1.248h-3.715v-.097l1.766-1.72c1.413-1.367 1.829-2.04 1.829-2.997 0-1.367-1.11-2.364-2.746-2.364-1.714 0-2.922 1.088-2.922 2.65h1.378c0-.855.57-1.442 1.464-1.442.86 0 1.373.564 1.373 1.299 0 .615-.25 1.008-1.287 2.045l-2.848 2.854v1.02h5.708zm6.853 0V372.6h1.11v-1.242h-1.11v-5.412h-2.074a107.219 107.219 0 00-3.35 5.43v1.224h4.017v1.567h1.407zm-1.385-2.775h-2.677v-.08a88.885 88.885 0 012.598-4.17h.08v4.25zm5.07 2.894c.542 0 .912-.387.912-.9 0-.518-.37-.9-.912-.9-.535 0-.911.382-.911.9 0 .513.376.9.911.9zm5.765.086c1.795 0 2.997-1.18 2.997-2.906 0-1.652-1.14-2.705-2.547-2.705-.837 0-1.44.29-1.805.797h-.097l.228-2.375h3.782v-1.237h-4.927l-.45 4.786h1.333c.279-.53.82-.855 1.52-.855.906 0 1.544.65 1.544 1.618 0 .991-.638 1.652-1.583 1.652-.838 0-1.47-.496-1.561-1.259h-1.373c.063 1.447 1.242 2.484 2.94 2.484zm7.588 0c1.966 0 3.133-1.595 3.133-4.313 0-2.728-1.185-4.318-3.133-4.318-1.954 0-3.139 1.59-3.139 4.307 0 2.729 1.168 4.324 3.14 4.324zm0-1.22c-1.042 0-1.652-1.065-1.652-3.104 0-2.022.621-3.082 1.652-3.082s1.647 1.054 1.647 3.082c0 2.04-.604 3.105-1.647 3.105zm11.37 1.22c2.08 0 3.379-1.242 3.379-3.037v-5.389h-1.47v5.253c0 1.11-.69 1.857-1.908 1.857-1.22 0-1.909-.746-1.909-1.857v-5.253h-1.47v5.39c0 1.794 1.3 3.036 3.379 3.036zm8.232 0c1.994 0 3.23-.997 3.23-2.598 0-1.253-.7-1.948-2.37-2.324l-.945-.217c-1.02-.233-1.436-.558-1.436-1.11 0-.701.627-1.157 1.573-1.157.9 0 1.538.456 1.64 1.18h1.407c-.068-1.413-1.316-2.405-3.042-2.405-1.84 0-3.059.992-3.059 2.484 0 1.225.7 1.965 2.193 2.302l1.066.244c1.054.245 1.504.593 1.504 1.185 0 .69-.701 1.185-1.67 1.185-1.042 0-1.771-.473-1.862-1.207h-1.436c.074 1.492 1.322 2.438 3.207 2.438zm7.964-.205c2.461 0 3.868-1.51 3.868-4.147 0-2.581-1.424-4.074-3.868-4.074h-3.082v8.22h3.082zm-.194-1.27h-1.418v-5.68h1.418c1.613 0 2.564 1.03 2.564 2.825 0 1.835-.929 2.854-2.564 2.854z"/></g></svg>